<?xml version="1.0" encoding="UTF-8"?>
<svg version="1.1" xmlns="http://www.w3.org/2000/svg" width="1024" height="1024">
<path d="M0 0 C337.92 0 675.84 0 1024 0 C1024 337.92 1024 675.84 1024 1024 C686.08 1024 348.16 1024 0 1024 C0 686.08 0 348.16 0 0 Z " fill="#020101" transform="translate(0,0)"/>
<path d="M0 0 C11.89949494 -0.7241072 23.5795344 1.39689136 35.3125 3.125 C36.39937103 3.28272888 37.48624207 3.44045776 38.60604858 3.60296631 C56.52197716 6.20778722 74.30647591 9.14483019 92 13 C92.92828613 13.19770996 93.85657227 13.39541992 94.81298828 13.59912109 C127.27343467 20.62427808 164.28664153 33.7971456 188 58 C186.125 62.75 186.125 62.75 185 65 C183.59517254 89.15222599 193.4972349 109.5277339 204.03921509 130.75003052 C205.2877777 133.26355148 206.52717017 135.78142224 207.7644043 138.30053711 C209.41433013 141.65903443 211.06697806 145.01616436 212.72216797 148.37207031 C217.56815734 158.20661533 222.32039406 168.08524554 227 178 C227.35433105 178.73976074 227.70866211 179.47952148 228.07373047 180.24169922 C234.64693714 194.03663419 234.64693714 194.03663419 233 201 C228.31838178 210.75337129 217.6218749 216.946739 208 221 C206.33388427 221.04285018 204.66603848 221.0457555 203 221 C201.33092683 221.66061862 199.66439959 222.32769336 198 223 C190.86024812 224.0513079 184.10164121 224.16420348 177 223 C176.30390625 222.97292969 175.6078125 222.94585937 174.890625 222.91796875 C163.78162499 222.41470868 153.07249388 217.40919129 143 213 C142.67 213.33 142.34 213.66 142 214 C161.78153823 232.20511745 187.52942787 239.44998309 213.875 239.375 C214.59655273 239.37445618 215.31810547 239.37391235 216.06152344 239.37335205 C265.71286729 239.20209328 306.7462293 212.66591317 343 181 C343.639375 180.44530029 344.27875 179.89060059 344.9375 179.3190918 C355.86622993 169.81326348 366.30476578 159.78519952 376.5625 149.5625 C377.29968262 148.82990967 378.03686523 148.09731934 378.79638672 147.3425293 C382.77505519 143.35253978 386.56877508 139.26600541 390.24682617 134.99829102 C393.3496108 131.46169553 396.62631487 128.08948772 399.875 124.6875 C405.12173136 119.15764789 410.12207368 113.57487485 414.86328125 107.60546875 C417.30097597 104.6329964 419.88188131 101.8122693 422.5 99 C426.71290235 94.46759809 430.68030382 89.79073901 434.5625 84.97265625 C437.43719747 81.46681527 440.39722667 78.04329802 443.375 74.625 C447.47021364 69.92271441 451.5427551 65.20450985 455.5625 60.4375 C456.46088474 59.37365336 457.35932241 58.30985142 458.2578125 57.24609375 C458.92925293 56.45114502 458.92925293 56.45114502 459.61425781 55.64013672 C460.07155273 55.0988916 460.52884766 54.55764648 461 54 C461.71687988 53.15139404 461.71687988 53.15139404 462.44824219 52.28564453 C473.12278006 39.67252051 484.21043775 27.58069205 496 16 C496 19.74077991 495.15950354 20.28569409 492.75 23.0625 C488.03442301 28.74147444 484.04215474 34.82260381 480.03808594 41.01782227 C479.5434082 41.77635498 479.04873047 42.5348877 478.5390625 43.31640625 C478.09771973 44.00162354 477.65637695 44.68684082 477.20166016 45.39282227 C476 47 476 47 474 48 C473.72542969 48.69480469 473.45085937 49.38960938 473.16796875 50.10546875 C471.66904737 53.82018695 469.52041741 56.99350922 467.3125 60.3125 C455.35386931 78.56058904 443.98798726 97.15374085 433 116 C432.41299316 117.00659668 431.82598633 118.01319336 431.22119141 119.05029297 C428.79745953 123.20776089 426.3739541 127.3653571 423.95336914 131.5246582 C420.46138894 137.51880833 416.92365555 143.48117747 413.32885742 149.4140625 C410.14307829 154.7004441 407.10599912 160.06830815 404.0625 165.4375 C400.25050896 172.15012592 396.34280035 178.76798777 392.20239258 185.2824707 C388.16173642 191.66951682 384.29871213 198.16060874 380.42758179 204.65103149 C374.05254695 215.33743828 367.58320194 225.94193049 360.85229492 236.40966797 C356.73030359 242.82326646 352.72171458 249.29702337 348.81274414 255.84277344 C346.0139995 260.48766609 342.98657839 264.92263353 339.85424805 269.34863281 C337.28661002 273.02006783 334.82498696 276.75809881 332.35717773 280.49707031 C324.84533458 291.877249 317.11105731 303.04033176 309 314 C308.40864258 314.8038916 307.81728516 315.6077832 307.20800781 316.43603516 C298.49570324 328.26707895 289.47097661 339.76770445 280 351 C279.46793945 351.63115723 278.93587891 352.26231445 278.38769531 352.91259766 C276.03294292 355.70235571 273.672824 358.48720345 271.3046875 361.265625 C269.79549314 363.05619458 268.30991248 364.86700087 266.8515625 366.69921875 C264.73405468 369.33046791 262.41735068 371.64308309 260 374 C259.236875 374.763125 258.47375 375.52625 257.6875 376.3125 C257.130625 376.869375 256.57375 377.42625 256 378 C252.88163667 376.62647072 250.88134572 375.08161027 248.57421875 372.5859375 C247.94193359 371.90660156 247.30964844 371.22726562 246.65820312 370.52734375 C245.68270508 369.46193359 245.68270508 369.46193359 244.6875 368.375 C244.04876953 367.68792969 243.41003906 367.00085938 242.75195312 366.29296875 C238.41194102 361.60557979 234.1804075 356.82988275 230 352 C229.5268335 351.45456543 229.05366699 350.90913086 228.56616211 350.34716797 C222.04288112 342.79789983 215.89284953 335.05655231 210 327 C209.11630705 325.80177227 208.23217421 324.60386885 207.34765625 323.40625 C192.75602974 303.6182414 178.46818391 283.57156478 165 263 C164.38125 262.05737305 164.38125 262.05737305 163.75 261.09570312 C152.89320063 244.52915409 142.38993772 227.72686892 132.1875 210.75 C131.44125366 209.50899536 131.44125366 209.50899536 130.67993164 208.24291992 C128.66561644 204.87201785 126.75110513 201.51530179 125 198 C123.97639794 196.34287127 122.9326226 194.69812564 121.875 193.0625 C115.61786124 183.30188066 109.60902254 173.39203484 103.66015625 163.44140625 C101.65572791 160.08982824 99.64004282 156.74519385 97.62109375 153.40234375 C85.35155813 133.06383008 73.4896594 112.51233856 61.91992188 91.76831055 C57.4972567 83.85191598 52.9581268 76.01509442 48.31884766 68.22412109 C46.84244882 65.73430373 45.37965154 63.23676517 43.91796875 60.73828125 C26.1994557 29.82557513 26.1994557 29.82557513 3 3 C1.99794247 2.00206177 0.99764265 1.0023518 0 0 Z " fill="#8F6925" transform="translate(257,269)"/>
<path d="M0 0 C0 3.74077991 -0.84049646 4.28569409 -3.25 7.0625 C-7.96557699 12.74147444 -11.95784526 18.82260381 -15.96191406 25.01782227 C-16.4565918 25.77635498 -16.95126953 26.5348877 -17.4609375 27.31640625 C-18.12295166 28.34423218 -18.12295166 28.34423218 -18.79833984 29.39282227 C-20 31 -20 31 -22 32 C-22.27457031 32.69480469 -22.54914063 33.38960938 -22.83203125 34.10546875 C-24.33095263 37.82018695 -26.47958259 40.99350922 -28.6875 44.3125 C-40.64613069 62.56058904 -52.01201274 81.15374085 -63 100 C-63.58700684 101.00659668 -64.17401367 102.01319336 -64.77880859 103.05029297 C-67.20254047 107.20776089 -69.6260459 111.3653571 -72.04663086 115.5246582 C-75.53861106 121.51880833 -79.07634445 127.48117747 -82.67114258 133.4140625 C-85.85692171 138.7004441 -88.89400088 144.06830815 -91.9375 149.4375 C-95.74949104 156.15012592 -99.65719965 162.76798777 -103.79760742 169.2824707 C-107.83826358 175.66951682 -111.70128787 182.16060874 -115.57241821 188.65103149 C-121.94745305 199.33743828 -128.41679806 209.94193049 -135.14770508 220.40966797 C-139.26969641 226.82326646 -143.27828542 233.29702337 -147.18725586 239.84277344 C-149.9860005 244.48766609 -153.01342161 248.92263353 -156.14575195 253.34863281 C-158.71338998 257.02006783 -161.17501304 260.75809881 -163.64282227 264.49707031 C-171.15466542 275.877249 -178.88894269 287.04033176 -187 298 C-187.59135742 298.8038916 -188.18271484 299.6077832 -188.79199219 300.43603516 C-197.50429676 312.26707895 -206.52902339 323.76770445 -216 335 C-216.53206055 335.63115723 -217.06412109 336.26231445 -217.61230469 336.91259766 C-219.96705708 339.70235571 -222.327176 342.48720345 -224.6953125 345.265625 C-226.20450686 347.05619458 -227.69008752 348.86700087 -229.1484375 350.69921875 C-231.26594532 353.33046791 -233.58264932 355.64308309 -236 358 C-236.763125 358.763125 -237.52625 359.52625 -238.3125 360.3125 C-238.869375 360.869375 -239.42625 361.42625 -240 362 C-243.11836333 360.62647072 -245.11865428 359.08161027 -247.42578125 356.5859375 C-248.37420898 355.56693359 -248.37420898 355.56693359 -249.34179688 354.52734375 C-250.31729492 353.46193359 -250.31729492 353.46193359 -251.3125 352.375 C-251.95123047 351.68792969 -252.58996094 351.00085938 -253.24804688 350.29296875 C-257.58805898 345.60557979 -261.8195925 340.82988275 -266 336 C-266.4731665 335.45456543 -266.94633301 334.90913086 -267.43383789 334.34716797 C-273.95711888 326.79789983 -280.10715047 319.05655231 -286 311 C-286.88369295 309.80177227 -287.76782579 308.60386885 -288.65234375 307.40625 C-306.2781027 283.5035912 -323.2584695 259.1597234 -339.3046875 234.16796875 C-341.07172362 231.42031063 -342.8684492 228.69650252 -344.6953125 225.98828125 C-345.11611084 225.35672119 -345.53690918 224.72516113 -345.97045898 224.07446289 C-347.11243509 222.3625296 -348.26484394 220.65756867 -349.41796875 218.953125 C-351.03590572 215.93297598 -351.37931452 214.35786625 -351 211 C-350.01 210.67 -349.02 210.34 -348 210 C-347.87625 210.928125 -347.87625 210.928125 -347.75 211.875 C-347.5025 212.57625 -347.255 213.2775 -347 214 C-346.39285156 214.27199219 -345.78570312 214.54398438 -345.16015625 214.82421875 C-342.30497749 216.37830339 -341.35559419 218.16265119 -339.6875 220.9375 C-339.09195312 221.91460937 -338.49640625 222.89171875 -337.8828125 223.8984375 C-337.26148438 224.92195312 -336.64015625 225.94546875 -336 227 C-334.10152705 229.93266055 -332.19483304 232.85978323 -330.28515625 235.78515625 C-329 238 -329 238 -329 240 C-328.34 240 -327.68 240 -327 240 C-326.896875 240.639375 -326.79375 241.27875 -326.6875 241.9375 C-326.460625 242.618125 -326.23375 243.29875 -326 244 C-325.01 244.33 -324.02 244.66 -323 245 C-321.1202167 247.31839941 -319.36203104 249.64079979 -317.625 252.0625 C-311.82780773 259.97214521 -305.74017299 267.5964831 -299.50878906 275.16650391 C-298.06214092 276.92448572 -296.61994712 278.68600113 -295.1796875 280.44921875 C-293.12207039 282.9680259 -291.06215923 285.48491174 -289 288 C-258.54816595 283.01697261 -229.92122525 260.2574627 -207 241 C-206.45005371 240.54173828 -205.90010742 240.08347656 -205.33349609 239.61132812 C-195.26359269 231.19319072 -185.94256802 222.1557055 -176.75537109 212.7878418 C-173.74427517 209.72104688 -170.70438651 206.68585002 -167.625 203.6875 C-164.77509571 200.76974084 -162.16144181 197.7058537 -159.55078125 194.57421875 C-159.03902344 194.05472656 -158.52726563 193.53523437 -158 193 C-157.34 193 -156.68 193 -156 193 C-155.74863281 192.41863281 -155.49726562 191.83726562 -155.23828125 191.23828125 C-153.84680633 188.72309157 -152.27950967 187.15150908 -150.1875 185.1875 C-147.51355584 182.60090791 -145.21615226 180.07742706 -143.125 177 C-142.42375 176.01 -141.7225 175.02 -141 174 C-140.34 174 -139.68 174 -139 174 C-138.67 173.01 -138.34 172.02 -138 171 C-137.34 171 -136.68 171 -136 171 C-135.34 169.35 -134.68 167.7 -134 166 C-133.34 166 -132.68 166 -132 166 C-131.7525 165.278125 -131.505 164.55625 -131.25 163.8125 C-128.55774105 157.75491737 -123.61022465 153.03724851 -118.4375 149 C-114.82878284 146.03900131 -112.49337116 142.89864033 -110.25 138.8125 C-108.00039631 134.74388082 -105.10824032 131.29467455 -102.1640625 127.7109375 C-99.15839936 123.9457205 -96.41364994 120.00927343 -93.6640625 116.0546875 C-92.84035156 115.03761719 -92.84035156 115.03761719 -92 114 C-91.34 114 -90.68 114 -90 114 C-89.731875 113.236875 -89.46375 112.47375 -89.1875 111.6875 C-88.0249027 109.05635874 -87.02708537 107.94262348 -85 106 C-84.649375 105.29875 -84.29875 104.5975 -83.9375 103.875 C-83 102 -83 102 -81 101 C-79.86649466 98.98330173 -79.86649466 98.98330173 -79 97 C-78.34 97 -77.68 97 -77 97 C-76.34 95.35 -75.68 93.7 -75 92 C-74.34 92 -73.68 92 -73 92 C-72.87625 91.4225 -72.7525 90.845 -72.625 90.25 C-71.97946097 87.92605949 -71.27275111 86.05054346 -70 84 C-68.515 83.505 -68.515 83.505 -67 83 C-65.30117552 80.50240018 -65.30117552 80.50240018 -64 78 C-66.21426719 77.76502112 -66.21426719 77.76502112 -67.91796875 79.90625 C-68.66691406 80.7621875 -69.41585938 81.618125 -70.1875 82.5 C-71.39986328 83.87671875 -71.39986328 83.87671875 -72.63671875 85.28125 C-73.41660156 86.1784375 -74.19648437 87.075625 -75 88 C-76.16666667 89.33333333 -77.33333333 90.66666667 -78.5 92 C-79.056875 92.639375 -79.61375 93.27875 -80.1875 93.9375 C-83.03633791 97.17928107 -85.93577601 100.37518819 -88.828125 103.578125 C-90.65744304 105.61801202 -92.45965658 107.67603782 -94.25 109.75 C-98.13669817 114.21788668 -102.19128365 118.52763028 -106.23242188 122.85522461 C-109.12827612 125.96240926 -111.98423438 129.08792747 -114.75 132.3125 C-120.34839092 138.78175173 -126.48741466 144.63715574 -132.98046875 150.1953125 C-135.19004169 152.16982449 -137.24502949 154.25244591 -139.3125 156.375 C-143.43863116 160.5581416 -147.84038995 164.25682099 -152.421875 167.9296875 C-154.60997606 169.68679895 -156.75314105 171.47663074 -158.875 173.3125 C-161.53103575 175.61013093 -164.24096886 177.82621789 -167 180 C-167.66 179.67 -168.32 179.34 -169 179 C-163.9067838 174.32661507 -158.76641704 169.76571452 -153.375 165.4375 C-149.37571705 162.20319944 -145.68398411 158.84729004 -142.14453125 155.1171875 C-140.29096876 153.28725878 -138.39712395 151.60476055 -136.421875 149.91015625 C-131.18972738 145.36624239 -126.32512816 140.47106018 -121.4375 135.5625 C-120.53064453 134.65951172 -119.62378906 133.75652344 -118.68945312 132.82617188 C-114.18937047 128.31956263 -109.82949677 123.76134127 -105.68286133 118.92797852 C-102.61094394 115.40862096 -99.35062441 112.06533878 -96.125 108.6875 C-90.87826864 103.15764789 -85.87792632 97.57487485 -81.13671875 91.60546875 C-78.69902403 88.6329964 -76.11811869 85.8122693 -73.5 83 C-69.28709765 78.46759809 -65.31969618 73.79073901 -61.4375 68.97265625 C-58.56280253 65.46681527 -55.60277333 62.04329802 -52.625 58.625 C-48.52978636 53.92271441 -44.4572449 49.20450985 -40.4375 44.4375 C-39.53911526 43.37365336 -38.64067759 42.30985142 -37.7421875 41.24609375 C-37.07074707 40.45114502 -37.07074707 40.45114502 -36.38574219 39.64013672 C-35.92844727 39.0988916 -35.47115234 38.55764648 -35 38 C-34.28312012 37.15139404 -34.28312012 37.15139404 -33.55175781 36.28564453 C-22.87721994 23.67252051 -11.78956225 11.58069205 0 0 Z M-61 72 C-62.0260734 73.31337396 -63.02727325 74.64664105 -64 76 C-63.01 76 -62.02 76 -61 76 C-60.67 74.68 -60.34 73.36 -60 72 C-60.33 72 -60.66 72 -61 72 Z " fill="#AC8430" transform="translate(753,285)"/>
<path d="M0 0 C-0.95132813 0.33257812 -0.95132813 0.33257812 -1.921875 0.671875 C-26.0353592 9.8643082 -49.08376097 26.82698523 -69 43 C-69.88816406 43.70898438 -70.77632812 44.41796875 -71.69140625 45.1484375 C-82.64347625 53.98023776 -93.2110395 63.28860132 -103.578125 72.796875 C-105.75318291 74.77547606 -107.9588411 76.70731676 -110.1875 78.625 C-113.63161512 81.6131732 -116.82142881 84.80319173 -120.01953125 88.05078125 C-121.85012791 89.85249276 -123.73031479 91.52573898 -125.6875 93.1875 C-130.05278188 96.9328602 -134.06380333 101.00661385 -138.08081055 105.11791992 C-140.92618635 108.00915333 -143.83196576 110.75828252 -146.90625 113.40625 C-151.14824484 117.07182066 -155.07600758 120.9993671 -159 125 C-163.6000656 129.68991063 -168.27152803 134.18455832 -173.25 138.47265625 C-175.26250971 140.22911004 -177.14491895 142.07866605 -179 144 C-182.12845964 147.17089998 -185.36855352 150.1256996 -188.74609375 153.02734375 C-190.95941141 154.96447619 -193.12165191 156.95055872 -195.27734375 158.95141602 C-200.36515278 163.66945266 -205.54601862 168.20167009 -210.95703125 172.55078125 C-213.26216998 174.40613681 -215.54778866 176.27796449 -217.82421875 178.16796875 C-225.60703126 184.60791949 -233.4383352 190.61131399 -242 196 C-243.24535115 196.8077318 -244.49010996 197.61637737 -245.734375 198.42578125 C-252.53016863 202.80655458 -259.41295229 206.90105053 -266.625 210.5625 C-267.2756543 210.89701172 -267.92630859 211.23152344 -268.59667969 211.57617188 C-272.38579142 213.44612312 -275.80136044 214.52846048 -280 215 C-278.50554575 211.06007516 -276.53441952 210.12065171 -273 208 C-271.12132943 206.19420889 -269.32907108 204.33024686 -267.55078125 202.42578125 C-266 201 -266 201 -264 201 C-264 200.34 -264 199.68 -264 199 C-262.38025441 197.28769752 -260.7041054 195.62836738 -259 194 C-257.6696875 192.6078125 -257.6696875 192.6078125 -256.3125 191.1875 C-254 189 -254 189 -252 189 C-251.67 188.01 -251.34 187.02 -251 186 C-249.511813 184.8094504 -248.02320575 183.61941707 -246.53125 182.43359375 C-244.54681449 180.57571662 -243.48473943 178.38017859 -242.234375 175.9921875 C-240.71081152 173.53327175 -238.90140649 171.56158326 -236.9375 169.4375 C-231.79960604 163.87284286 -227.180045 157.99201173 -222.55371094 152.00390625 C-220.89134682 149.85986404 -219.21627563 147.72619344 -217.5390625 145.59375 C-212.20596787 138.79990171 -206.91291157 131.99914323 -201.9375 124.9375 C-192.90789333 112.12411143 -183.26505703 99.84301887 -173 88 C-172.38898438 87.27683594 -171.77796875 86.55367188 -171.1484375 85.80859375 C-162.97845141 76.22531622 -153.95592477 67.69977317 -144 60 C-143.4858252 59.59346191 -142.97165039 59.18692383 -142.44189453 58.76806641 C-105.4511146 29.64435532 -58.98977281 13.41664491 -14 1.375 C-12.56708618 0.98501831 -12.56708618 0.98501831 -11.10522461 0.5871582 C-10.22487549 0.35988037 -9.34452637 0.13260254 -8.4375 -0.1015625 C-7.29087891 -0.40054443 -7.29087891 -0.40054443 -6.12109375 -0.70556641 C-3.79005151 -1.0291434 -2.22356883 -0.71786987 0 0 Z " fill="#80591B" transform="translate(768,271)"/>
<path d="M0 0 C10.3704135 -0.33775774 20.31668035 0.66895796 30.5625 2.0625 C31.37837585 2.17126465 32.19425171 2.2800293 33.03485107 2.39208984 C51.17651759 4.82684738 69.10464582 8.17308653 87 12 C88.0223877 12.21624023 89.04477539 12.43248047 90.09814453 12.65527344 C122.45409433 19.64141528 159.37602021 32.88836925 183 57 C181.125 61.75 181.125 61.75 180 64 C178.58994 88.2421854 188.57403022 108.68226485 199.15484619 129.97964478 C200.40941306 132.50682103 201.65301617 135.03914762 202.89404297 137.57299805 C205.85353668 143.61122417 208.81757774 149.64718192 211.83007812 155.65917969 C213.27274608 158.53832009 214.69996331 161.42461064 216.125 164.3125 C216.51993652 165.07941162 216.91487305 165.84632324 217.32177734 166.63647461 C219.96871573 172.03571731 220.73738333 177.01031974 221 183 C220.34 183 219.68 183 219 183 C218.60167969 182.26394531 218.20335937 181.52789062 217.79296875 180.76953125 C217.26316406 179.79371094 216.73335937 178.81789063 216.1875 177.8125 C215.40439453 176.36810547 215.40439453 176.36810547 214.60546875 174.89453125 C211.76195463 169.61126366 211.76195463 169.61126366 208 165 C206.78072299 162.82241405 205.64735056 160.60893516 204.51171875 158.38671875 C202.68105276 155.49644246 200.42600501 153.41183856 198 151 C196.08401289 148.64380092 194.2944674 146.19946608 192.5 143.75 C191.44342775 142.32498714 190.3861098 140.90052694 189.328125 139.4765625 C188.78349609 138.74211914 188.23886719 138.00767578 187.67773438 137.25097656 C168.03921413 110.90243805 147.26028265 84.2595749 122 63 C121.16597656 62.27683594 120.33195312 61.55367188 119.47265625 60.80859375 C113.36420846 55.58834276 107.0565037 50.72851612 100.5625 46 C99.40838623 45.15381104 99.40838623 45.15381104 98.23095703 44.29052734 C94.60997 41.68414707 91.29979772 39.3677289 87 38 C85.02 40.31 83.04 42.62 81 45 C81.99 46.98 81.99 46.98 83 49 C83 49.99 83 50.98 83 52 C79.77584272 50.59696013 77.81158191 48.94905857 75.4375 46.375 C71.38972907 42.18184599 66.93010239 38.94145571 62.125 35.6640625 C61.42375 35.11492187 60.7225 34.56578125 60 34 C60 33.34 60 32.68 60 32 C59.34 31.814375 58.68 31.62875 58 31.4375 C54.44578443 29.73443837 52.01872438 27.49997689 49.109375 24.875 C44.46395321 20.74573619 39.93546527 17.13536937 34.08203125 14.90234375 C31.26579075 13.68179674 28.6687582 12.14022901 26 10.625 C19.90971142 7.28698552 13.84289679 5.0807647 7.21484375 3.04296875 C4.61250698 2.19871126 2.41044446 1.25248905 0 0 Z " fill="#E8CC79" transform="translate(262,270)"/>
<path d="M0 0 C6.76537342 3.07588489 12.38336751 7.02359871 18.25 11.5625 C19.17514404 12.27269287 20.10028809 12.98288574 21.0534668 13.71459961 C28.06314256 19.149509 34.58336421 24.88495649 41 31 C42.28487844 32.11205854 43.57603824 33.21692474 44.875 34.3125 C53.88887157 42.13586023 62.34438579 50.85102607 70 60 C71.17175781 61.35544922 71.17175781 61.35544922 72.3671875 62.73828125 C86.05955603 78.62305274 99.07966105 95.38629963 110.9375 112.6875 C112.70046521 115.2576059 114.22569767 117.21441278 116.5 119.375 C119.79305143 122.832704 121.88142756 126.70095921 124.21875 130.84765625 C126.36118373 134.63920015 128.63975956 138.33778436 130.93359375 142.0390625 C132 144 132 144 132 146 C132.66 146 133.32 146 134 146 C133.67 143.36 133.34 140.72 133 138 C137.83565845 142.83565845 141.3447899 152.1698788 141.625 159 C141.12241307 164.92178513 137.70653491 168.4862109 133.5625 172.4375 C128.02157239 177.1035443 120.48919803 182.70314345 113.10546875 183.19140625 C112.06326172 183.09666016 112.06326172 183.09666016 111 183 C110.47792969 182.00484375 109.95585937 181.0096875 109.41796875 179.984375 C97.70166652 157.71394123 85.47081512 135.85970389 71.94140625 114.63671875 C70.06849241 111.69653067 68.22010955 108.74412068 66.40234375 105.76953125 C61.16558024 97.21189332 55.55935462 89.07645231 49.53320312 81.05712891 C47.86266199 78.81573088 46.21873055 76.55636283 44.578125 74.29296875 C38.45101988 65.85821987 32.20660169 57.64951405 25.375 49.7734375 C23.34405513 47.4017749 21.43634442 44.99545627 19.5625 42.5 C13.77119188 34.95036701 7.22874317 27.49895357 -0.125 21.4375 C-3.80464377 18.31780202 -4.95920318 15.60924304 -6 11 C-6.33 10.01 -6.66 9.02 -7 8 C-5.56640625 5.95703125 -5.56640625 5.95703125 -3.5625 3.8125 C-2.90378906 3.09707031 -2.24507813 2.38164062 -1.56640625 1.64453125 C-1.04949219 1.10183594 -0.53257812 0.55914062 0 0 Z " fill="#A67F32" transform="translate(349,307)"/>
<path d="M0 0 C0.99 0.99 0.99 0.99 2 2 C1.484375 2.66 0.96875 3.32 0.4375 4 C-1.06545158 7.13659461 -1.10143536 7.76638785 -0.5625 11 C0.04416664 14.68136347 -0.00343546 16.70132816 -2 20 C-3.80235988 22.26219949 -5.54874089 24.44010784 -8 26 C-10.1953125 25.6640625 -10.1953125 25.6640625 -12 25 C-12.33 23.68 -12.66 22.36 -13 21 C-17.88797325 26.38197054 -22.54846126 31.88428273 -27.05859375 37.5859375 C-29.41026726 40.51015124 -31.86177075 43.32951317 -34.35546875 46.1328125 C-35.92308779 47.9126745 -37.4288996 49.73266124 -38.9375 51.5625 C-41.04076606 54.02367396 -43.24763694 56.14751955 -45.71557617 58.24072266 C-49.8768894 61.84348589 -53.75709932 65.66149792 -57.61328125 69.5859375 C-59.04087562 71.02618046 -60.46861453 72.46628015 -61.89648438 73.90625 C-64.10318453 76.13766206 -66.3082268 78.37066177 -68.51049805 80.60644531 C-76.68154798 88.8935587 -84.77856077 96.8752677 -94 104 C-95.30250801 105.05878479 -96.60227662 106.12095449 -97.8984375 107.1875 C-108.21016189 115.55890833 -118.61181226 123.48109153 -130.4296875 129.6484375 C-133.66853795 131.35154123 -136.79860487 133.22425161 -139.9296875 135.1171875 C-142.40857823 136.17422393 -144.33198494 136.15803574 -147 136 C-147 136.66 -147 137.32 -147 138 C-149.20804559 138.79247664 -151.41642497 139.5840013 -153.625 140.375 C-154.85476563 140.81585937 -156.08453125 141.25671875 -157.3515625 141.7109375 C-172.19693856 146.95609178 -172.19693856 146.95609178 -178 146 C-181.53841679 143.29686004 -183.62348894 139.72246031 -186 136 C-186.8680558 134.73828709 -187.74208127 133.48066672 -188.62109375 132.2265625 C-190.53551201 129.48913899 -192.42773633 126.73855991 -194.30078125 123.97265625 C-196.54136651 120.66542396 -198.82667326 117.39244711 -201.125 114.125 C-207.98793728 104.22700922 -214.49006316 94.08327705 -221.05029297 83.98339844 C-222.71451248 81.43684667 -224.39742127 78.90537211 -226.09765625 76.3828125 C-226.525625 75.74077881 -226.95359375 75.09874512 -227.39453125 74.43725586 C-228.46574892 72.8324446 -229.54684658 71.23423974 -230.62890625 69.63671875 C-232.10087278 66.80601388 -232.31469667 65.14124496 -232 62 C-230.515 61.505 -230.515 61.505 -229 61 C-228.9175 61.61875 -228.835 62.2375 -228.75 62.875 C-228.37875 63.926875 -228.37875 63.926875 -228 65 C-227.39285156 65.27199219 -226.78570312 65.54398437 -226.16015625 65.82421875 C-223.30497749 67.37830339 -222.35559419 69.16265119 -220.6875 71.9375 C-220.09195312 72.91460937 -219.49640625 73.89171875 -218.8828125 74.8984375 C-217.95082031 76.43371094 -217.95082031 76.43371094 -217 78 C-215.10152705 80.93266055 -213.19483304 83.85978323 -211.28515625 86.78515625 C-210 89 -210 89 -210 91 C-209.34 91 -208.68 91 -208 91 C-207.896875 91.639375 -207.79375 92.27875 -207.6875 92.9375 C-207.460625 93.618125 -207.23375 94.29875 -207 95 C-205.515 95.495 -205.515 95.495 -204 96 C-202.1202167 98.31839941 -200.36203104 100.64079979 -198.625 103.0625 C-192.82780773 110.97214521 -186.74017299 118.5964831 -180.50878906 126.16650391 C-179.06214092 127.92448572 -177.61994712 129.68600113 -176.1796875 131.44921875 C-174.12207039 133.9680259 -172.06215923 136.48491174 -170 139 C-139.54816595 134.01697261 -110.92122525 111.2574627 -88 92 C-87.45005371 91.54173828 -86.90010742 91.08347656 -86.33349609 90.61132812 C-76.26359269 82.19319072 -66.94256802 73.1557055 -57.75537109 63.7878418 C-54.74427517 60.72104688 -51.70438651 57.68585002 -48.625 54.6875 C-45.77509571 51.76974084 -43.16144181 48.7058537 -40.55078125 45.57421875 C-40.03902344 45.05472656 -39.52726563 44.53523438 -39 44 C-38.34 44 -37.68 44 -37 44 C-36.74863281 43.41863281 -36.49726562 42.83726562 -36.23828125 42.23828125 C-34.84680633 39.72309157 -33.27950967 38.15150908 -31.1875 36.1875 C-28.51355584 33.60090791 -26.21615226 31.07742706 -24.125 28 C-23.42375 27.01 -22.7225 26.02 -22 25 C-21.34 25 -20.68 25 -20 25 C-19.67 24.01 -19.34 23.02 -19 22 C-18.34 22 -17.68 22 -17 22 C-16.01 19.525 -16.01 19.525 -15 17 C-14.34 17 -13.68 17 -13 17 C-12.62875 15.9171875 -12.62875 15.9171875 -12.25 14.8125 C-9.93632222 9.60672499 -6.03857717 5.93229883 -2 2 C-1.34 1.34 -0.68 0.68 0 0 Z " fill="#C69C49" transform="translate(634,434)"/>
<path d="M0 0 C0.495 0.495 0.495 0.495 1 1 C3.19856401 1.15957472 5.40207421 1.25159634 7.60546875 1.31640625 C8.28112381 1.33718735 8.95677887 1.35796844 9.65290833 1.37937927 C11.09462932 1.42275867 12.53642266 1.46378588 13.97827148 1.50268555 C16.13348963 1.56103768 18.28839061 1.62649046 20.44335938 1.69335938 C27.03603919 1.88979339 33.61855535 2.02086423 40.21484375 1.99609375 C46.94604334 1.97252277 53.65123758 2.20170359 60.375 2.5 C61.50421875 2.54769531 62.6334375 2.59539063 63.796875 2.64453125 C66.53137366 2.76039984 69.26572863 2.87890624 72 3 C71.67 3.66 71.34 4.32 71 5 C70.01 5 69.02 5 68 5 C68 5.66 68 6.32 68 7 C70.97 7.33 73.94 7.66 77 8 C77 8.33 77 8.66 77 9 C66.25214872 9.69868012 55.53244253 10.0831902 44.76171875 10.17578125 C43.04373581 10.19365189 43.04373581 10.19365189 41.29104614 10.21188354 C36.54500753 10.26081178 31.79925185 10.30839263 27.05297852 10.32592773 C23.53880822 10.34136055 20.02562762 10.38145339 16.51171875 10.42578125 C15.44298019 10.42387283 14.37424164 10.42196442 13.27311707 10.41999817 C7.12194697 10.52150569 3.78025473 11.09340745 -1 15 C-5.56720184 16.20480695 -9.86762085 16.03425101 -14.5625 15.75 C-15.84253906 15.68296875 -17.12257813 15.6159375 -18.44140625 15.546875 C-22.07742886 14.98810094 -23.99991164 14.04261335 -27 12 C-30.59280533 10.90202226 -30.59280533 10.90202226 -34 12 C-34 11.34 -34 10.68 -34 10 C-35.68754395 10.11480713 -35.68754395 10.11480713 -37.40917969 10.23193359 C-48.82652906 10.9524967 -60.13320102 11.03845675 -71.56591797 10.703125 C-74.28987748 10.62383929 -77.0139482 10.5572491 -79.73828125 10.4921875 C-81.49741511 10.44604176 -83.25653072 10.3991935 -85.015625 10.3515625 C-86.21726288 10.32178818 -86.21726288 10.32178818 -87.44317627 10.29141235 C-92.03719584 10.1511523 -96.4625485 9.7381464 -101 9 C-101 8.67 -101 8.34 -101 8 C-96.545 7.505 -96.545 7.505 -92 7 C-95.98780002 5.00609999 -97.47147572 4.77313037 -101.75 4.875 C-102.73484375 4.89304687 -103.7196875 4.91109375 -104.734375 4.9296875 C-105.48203125 4.95289063 -106.2296875 4.97609375 -107 5 C-107 4.67 -107 4.34 -107 4 C-92.56931941 2.62145937 -78.08859366 2.00347402 -63.59765625 1.75390625 C-62.17551315 1.72886772 -62.17551315 1.72886772 -60.72463989 1.70332336 C-56.84229072 1.63720939 -52.95997076 1.57431752 -49.07739258 1.52319336 C-46.18810481 1.48358158 -43.29922049 1.43215122 -40.41015625 1.37890625 C-39.09930809 1.36628502 -39.09930809 1.36628502 -37.76197815 1.35340881 C-33.34727708 1.2633707 -30.06406119 0.88703662 -26 -1 C-24.00038436 -1.03920815 -21.99950636 -1.04443347 -20 -1 C-14.19344468 -3.90327766 -5.92802921 -1.8128125 0 0 Z " fill="#4B3718" transform="translate(530,692)"/>
<path d="M0 0 C-3.15950712 2.10633808 -5.97824147 3.13959146 -9.5625 4.375 C-18.97225274 7.62697698 -28.11140886 11.41192205 -37.1875 15.5 C-38.03763672 15.87769531 -38.88777344 16.25539063 -39.76367188 16.64453125 C-43.49536609 18.32163243 -47.14504049 20.02274957 -50.67578125 22.09375 C-54.04021566 24.02306139 -57.43687683 25.47458568 -61 27 C-98.72058481 46.04281137 -135.49357328 72.99569476 -161.85546875 106.3515625 C-164.15671635 109.19354041 -166.58249068 111.87550963 -169.0625 114.5625 C-173.04546871 118.88048477 -176.73583416 123.34216358 -180.30859375 128.00390625 C-182 130 -182 130 -185 132 C-183.73603903 128.54296116 -182.29198368 125.76006868 -180.09375 122.8125 C-179.23293823 121.65065186 -179.23293823 121.65065186 -178.35473633 120.46533203 C-177.74267334 119.65177246 -177.13061035 118.83821289 -176.5 118 C-175.86924561 117.15421387 -175.23849121 116.30842773 -174.58862305 115.43701172 C-172.73217951 112.95310112 -170.86735999 110.47570965 -169 108 C-168.51869629 107.35836914 -168.03739258 106.71673828 -167.54150391 106.05566406 C-161.32441801 97.77708659 -154.75323698 89.84213101 -148 82 C-147.38511719 81.27167969 -146.77023437 80.54335938 -146.13671875 79.79296875 C-137.96590482 70.21810088 -128.95156164 61.6963988 -119 54 C-118.22873779 53.39019287 -118.22873779 53.39019287 -117.44189453 52.76806641 C-87.65902575 29.31931331 -52.04505164 15.08089521 -16.3125 3.4375 C-15.25474365 3.09041992 -14.1969873 2.74333984 -13.10717773 2.38574219 C-12.11919189 2.0715332 -11.13120605 1.75732422 -10.11328125 1.43359375 C-9.24485596 1.15572021 -8.37643066 0.87784668 -7.48168945 0.59155273 C-4.90031319 -0.02376204 -2.64359124 -0.10863263 0 0 Z " fill="#D1B05D" transform="translate(743,277)"/>
<path d="M0 0 C0.43570312 0.37511719 0.87140625 0.75023437 1.3203125 1.13671875 C1.91585938 1.64847656 2.51140625 2.16023438 3.125 2.6875 C4.07632812 3.50541016 4.07632812 3.50541016 5.046875 4.33984375 C6.80475271 5.8340398 8.58505941 7.29458715 10.375 8.75 C13 11 13 11 14 13 C14.61617188 13.30035156 15.23234375 13.60070312 15.8671875 13.91015625 C18.26333865 15.13456316 19.4165031 16.37270853 21.125 18.4375 C23.92019543 21.75010395 26.79716957 24.95187905 29.75 28.125 C35.01325779 33.89295374 39.82261299 39.96751636 44.5769043 46.15771484 C45.59952885 47.48156539 46.63067536 48.7988493 47.66723633 50.11181641 C51.76518005 55.31463945 55.60283778 60.63973384 59.3125 66.125 C59.87300049 66.9497583 60.43350098 67.7745166 61.01098633 68.62426758 C62.67770883 71.08035289 64.33945933 73.53973235 66 76 C66.46374023 76.68465332 66.92748047 77.36930664 67.40527344 78.07470703 C73.83406878 87.57364884 80.03516445 97.20270903 86 107 C86.40089844 107.65516602 86.80179687 108.31033203 87.21484375 108.98535156 C88.36543893 110.87817495 89.49827026 112.7803943 90.625 114.6875 C91.27726562 115.78449219 91.92953125 116.88148438 92.6015625 118.01171875 C94.00493546 121.01054645 94.32610055 122.74503341 94 126 C90.12167219 123.97990271 88.32258495 122.43192637 86.4375 118.5 C83.65074882 113.07693923 80.52940584 107.95202109 77.25 102.8125 C76.72792969 101.99426758 76.20585937 101.17603516 75.66796875 100.33300781 C74.61424934 98.68170492 73.56037668 97.03049981 72.50634766 95.37939453 C71.11366636 93.17954494 69.74421303 90.96778092 68.38671875 88.74609375 C63.15662209 80.19546499 57.55362996 72.06883421 51.53320312 64.05712891 C49.86266199 61.81573088 48.21873055 59.55636283 46.578125 57.29296875 C40.45101988 48.85821987 34.20660169 40.64951405 27.375 32.7734375 C25.34405513 30.4017749 23.43634442 27.99545627 21.5625 25.5 C15.88387756 18.07938469 9.33893479 11.22398127 2.62890625 4.73046875 C0 2 0 2 0 0 Z " fill="#D4AD57" transform="translate(347,324)"/>
<path d="M0 0 C2 0 2 0 3.41015625 1.3984375 C3.95542969 2.05070313 4.50070312 2.70296875 5.0625 3.375 C6.00802734 4.48101563 6.00802734 4.48101563 6.97265625 5.609375 C7.64167969 6.39828125 8.31070312 7.1871875 9 8 C16.3955673 16.6655132 24.59858682 24.3315291 33 32 C30.57516517 35.7187593 28.26074609 38.97216435 25 42 C21.88163667 40.62647072 19.88134572 39.08161027 17.57421875 36.5859375 C16.94193359 35.90660156 16.30964844 35.22726562 15.65820312 34.52734375 C15.00787109 33.81707031 14.35753906 33.10679687 13.6875 32.375 C13.04876953 31.68792969 12.41003906 31.00085938 11.75195312 30.29296875 C5.80927453 23.87463503 -0.00670191 17.35995548 -5.4375 10.5 C-6.11683594 9.6440625 -6.79617188 8.788125 -7.49609375 7.90625 C-7.99238281 7.2771875 -8.48867188 6.648125 -9 6 C-8.67 5.34 -8.34 4.68 -8 4 C-7.236875 4.20625 -6.47375 4.4125 -5.6875 4.625 C-2.78114056 5.33391203 -2.78114056 5.33391203 0 3 C0 2.01 0 1.02 0 0 Z " fill="#E7CE75" transform="translate(488,605)"/>
<path d="M0 0 C5.47696506 0.04057011 10.65499597 0.37916331 15 4 C15 4.66 15 5.32 15 6 C15.928125 6.103125 16.85625 6.20625 17.8125 6.3125 C21.27475141 7.05926011 21.68198399 7.58325024 24 10 C25.71390283 11.13259586 25.71390283 11.13259586 27.58203125 12.12109375 C28.26716797 12.49943359 28.95230469 12.87777344 29.65820312 13.26757812 C30.72458008 13.84668945 30.72458008 13.84668945 31.8125 14.4375 C36.69463884 17.10580261 41.41667892 19.84132189 46 23 C45.01 23.495 45.01 23.495 44 24 C43.01 23.67 42.02 23.34 41 23 C39.02 25.31 37.04 27.62 35 30 C35.66 31.32 36.32 32.64 37 34 C37 34.99 37 35.98 37 37 C33.77584272 35.59696013 31.81158191 33.94905857 29.4375 31.375 C25.38972907 27.18184599 20.93010239 23.94145571 16.125 20.6640625 C15.42375 20.11492187 14.7225 19.56578125 14 19 C14 18.34 14 17.68 14 17 C13.195625 16.690625 12.39125 16.38125 11.5625 16.0625 C9 15 9 15 8 14 C7.95936168 12.33382885 7.957279 10.66611905 8 9 C7.4225 8.71125 6.845 8.4225 6.25 8.125 C5.5075 7.75375 4.765 7.3825 4 7 C3.278125 6.71125 2.55625 6.4225 1.8125 6.125 C0 5 0 5 -0.8125 2.9375 C-0.874375 2.298125 -0.93625 1.65875 -1 1 C-0.67 0.67 -0.34 0.34 0 0 Z " fill="#FDFCCB" transform="translate(308,285)"/>
<path d="M0 0 C0.99 0.99 0.99 0.99 2 2 C1.484375 2.66 0.96875 3.32 0.4375 4 C-1.06545158 7.13659461 -1.10143536 7.76638785 -0.5625 11 C0.04416664 14.68136347 -0.00343546 16.70132816 -2 20 C-3.80235988 22.26219949 -5.54874089 24.44010784 -8 26 C-10.1953125 25.6640625 -10.1953125 25.6640625 -12 25 C-12.495 23.02 -12.495 23.02 -13 21 C-17.88797325 26.38197054 -22.54846126 31.88428273 -27.05859375 37.5859375 C-29.41026726 40.51015124 -31.86177075 43.32951317 -34.35546875 46.1328125 C-35.92308779 47.9126745 -37.4288996 49.73266124 -38.9375 51.5625 C-40.98009369 53.94919928 -43.10116792 56.01043971 -45.50390625 58.03125 C-50.9347119 62.7303994 -55.94774681 67.83934872 -61 72.9375 C-61.97502386 73.9175531 -62.9502828 74.8973724 -63.92578125 75.87695312 C-66.28616618 78.24902313 -68.64416905 80.6234086 -71 83 C-71.66 82.67 -72.32 82.34 -73 82 C-72.01 81.01 -72.01 81.01 -71 80 C-71 79.01 -71 78.02 -71 77 C-69.70239258 75.36181641 -69.70239258 75.36181641 -67.89453125 73.6015625 C-67.24033203 72.95703125 -66.58613281 72.3125 -65.91210938 71.6484375 C-65.21923828 70.98070312 -64.52636719 70.31296875 -63.8125 69.625 C-63.13896484 68.965 -62.46542969 68.305 -61.77148438 67.625 C-60.45371211 66.334226 -59.13314159 65.04630158 -57.80957031 63.76147461 C-55.51695529 61.5297939 -53.25823876 59.26640599 -51 57 C-50.21625 56.236875 -49.4325 55.47375 -48.625 54.6875 C-45.77509571 51.76974084 -43.16144181 48.7058537 -40.55078125 45.57421875 C-39.78314453 44.79498047 -39.78314453 44.79498047 -39 44 C-38.34 44 -37.68 44 -37 44 C-36.62294922 43.12794922 -36.62294922 43.12794922 -36.23828125 42.23828125 C-34.84680633 39.72309157 -33.27950967 38.15150908 -31.1875 36.1875 C-28.51355584 33.60090791 -26.21615226 31.07742706 -24.125 28 C-23.42375 27.01 -22.7225 26.02 -22 25 C-21.34 25 -20.68 25 -20 25 C-19.505 23.515 -19.505 23.515 -19 22 C-18.34 22 -17.68 22 -17 22 C-16.34 20.35 -15.68 18.7 -15 17 C-14.34 17 -13.68 17 -13 17 C-12.7525 16.278125 -12.505 15.55625 -12.25 14.8125 C-9.93632222 9.60672499 -6.03857717 5.93229883 -2 2 C-1.34 1.34 -0.68 0.68 0 0 Z " fill="#FCF490" transform="translate(634,434)"/>
<path d="M0 0 C3.20708687 -0.00217758 6.41382352 -0.02038541 9.62084961 -0.03930664 C20.51760161 -0.06943091 31.33474733 0.21993671 42.20092773 1.07202148 C43.75790123 1.1886187 43.75790123 1.1886187 45.34632874 1.30757141 C46.29471115 1.39056992 47.24309357 1.47356842 48.22021484 1.55908203 C49.4777079 1.66726509 49.4777079 1.66726509 50.76060486 1.77763367 C51.39188797 1.91216446 52.02317108 2.04669525 52.67358398 2.18530273 C53.16858398 3.17530273 53.16858398 3.17530273 53.67358398 4.18530273 C49.52984778 5.1351264 45.48046137 5.46601506 41.23999023 5.72045898 C40.16840919 5.7849247 40.16840919 5.7849247 39.07518005 5.85069275 C37.56324395 5.94062345 36.0512006 6.02876668 34.5390625 6.11523438 C32.27428429 6.24560378 30.01009923 6.38398046 27.74584961 6.52319336 C15.70553921 7.24067758 3.81339302 7.53187285 -8.22094727 6.47045898 C-15.20220753 5.92691932 -22.21674202 5.79549304 -29.21411133 5.578125 C-30.84558105 5.52289673 -30.84558105 5.52289673 -32.51000977 5.46655273 C-33.48510498 5.43625977 -34.4602002 5.4059668 -35.46484375 5.37475586 C-38.47004836 5.17579342 -41.36541397 4.72710661 -44.32641602 4.18530273 C-36.32341286 -3.81770042 -10.70395277 -0.00080888 0 0 Z " fill="#C08D2F" transform="translate(506.326416015625,694.814697265625)"/>
<path d="M0 0 C0.99 0.495 0.99 0.495 2 1 C1.62230469 1.41507812 1.24460937 1.83015625 0.85546875 2.2578125 C-8.50281021 12.73382501 -16.87239245 24.06294128 -25.2734375 35.30859375 C-25.7281543 35.91558105 -26.18287109 36.52256836 -26.65136719 37.14794922 C-27.57943629 38.42244816 -28.47986851 39.71738443 -29.35644531 41.02783203 C-30.50292428 42.73299474 -31.74476416 44.37323115 -33 46 C-33.99 46 -34.98 46 -36 46 C-37.50060989 47.16165446 -37.50060989 47.16165446 -38.890625 48.78125 C-39.43170898 49.37196289 -39.97279297 49.96267578 -40.53027344 50.57128906 C-41.0977832 51.20776367 -41.66529297 51.84423828 -42.25 52.5 C-43.12833496 53.46631348 -43.12833496 53.46631348 -44.02441406 54.45214844 C-47.50194585 58.28922493 -50.94422163 62.15815773 -54.328125 66.078125 C-57.11726872 69.28433694 -59.9800963 72.42426772 -62.828125 75.578125 C-64.65744304 77.61801202 -66.45965658 79.67603782 -68.25 81.75 C-72.13669817 86.21788668 -76.19128365 90.52763028 -80.23242188 94.85522461 C-83.12827612 97.96240926 -85.98423438 101.08792747 -88.75 104.3125 C-94.34839092 110.78175173 -100.48741466 116.63715574 -106.98046875 122.1953125 C-109.19004169 124.16982449 -111.24502949 126.25244591 -113.3125 128.375 C-117.43863116 132.5581416 -121.84038995 136.25682099 -126.421875 139.9296875 C-128.60997606 141.68679895 -130.75314105 143.47663074 -132.875 145.3125 C-135.53103575 147.61013093 -138.24096886 149.82621789 -141 152 C-141.66 151.67 -142.32 151.34 -143 151 C-137.9067838 146.32661507 -132.76641704 141.76571452 -127.375 137.4375 C-123.37571705 134.20319944 -119.68398411 130.84729004 -116.14453125 127.1171875 C-114.29096876 125.28725878 -112.39712395 123.60476055 -110.421875 121.91015625 C-105.18972738 117.36624239 -100.32512816 112.47106018 -95.4375 107.5625 C-94.0772168 106.20801758 -94.0772168 106.20801758 -92.68945312 104.82617188 C-88.18937047 100.31956263 -83.82949677 95.76134127 -79.68286133 90.92797852 C-76.61094394 87.40862096 -73.35062441 84.06533878 -70.125 80.6875 C-64.87826864 75.15764789 -59.87792632 69.57487485 -55.13671875 63.60546875 C-52.69902403 60.6329964 -50.11811869 57.8122693 -47.5 55 C-43.28709765 50.46759809 -39.31969618 45.79073901 -35.4375 40.97265625 C-32.02326375 36.80882005 -28.48416585 32.75841581 -24.94677734 28.69921875 C-21.34283362 24.55999421 -17.78103433 20.38902355 -14.25 16.1875 C-9.61788059 10.68101435 -4.85524531 5.31079919 0 0 Z " fill="#D1B462" transform="translate(727,313)"/>
<path d="M0 0 C2.58396679 -0.08112454 5.16537568 -0.14054748 7.75 -0.1875 C8.47960937 -0.21263672 9.20921875 -0.23777344 9.9609375 -0.26367188 C14.45003953 -0.3248869 16.60388308 0.1357652 20 3 C16.43829648 3.48520964 12.87560486 3.96269396 9.3125 4.4375 C8.2613501 4.57873291 7.2102002 4.71996582 6.12719727 4.86547852 C0.55465404 5.59722662 -4.94940924 6.17581745 -10.5625 6.4375 C-15.46333345 6.73978238 -18.07439229 7.93611105 -22 11 C-26.59547045 12.09543191 -30.86386558 12.03447837 -35.5625 11.75 C-36.84253906 11.68296875 -38.12257813 11.6159375 -39.44140625 11.546875 C-43.07742886 10.98810094 -44.99991164 10.04261335 -48 8 C-51.59280533 6.90202226 -51.59280533 6.90202226 -55 8 C-55 7.34 -55 6.68 -55 6 C-55.63421875 6.09539063 -56.2684375 6.19078125 -56.921875 6.2890625 C-71.54148107 8.02564554 -86.5481303 5.24913204 -101 3 C-99 1 -99 1 -96.3203125 0.734375 C-95.26585937 0.73953125 -94.21140625 0.7446875 -93.125 0.75 C-91.55105469 0.74226562 -91.55105469 0.74226562 -89.9453125 0.734375 C-87 1 -87 1 -85.16723633 1.99291992 C-82.46352012 3.24929363 -80.35508895 3.30324265 -77.37890625 3.37890625 C-76.28481445 3.41250244 -75.19072266 3.44609863 -74.06347656 3.48071289 C-72.9081543 3.50770264 -71.75283203 3.53469238 -70.5625 3.5625 C-68.19395233 3.63350467 -65.82546043 3.70639716 -63.45703125 3.78125 C-62.32990723 3.81605469 -61.2027832 3.85085938 -60.04150391 3.88671875 C-56.59510247 4.01508047 -53.18456206 4.25454425 -49.75 4.5625 C-38.0472616 5.57104428 -26.33665767 4.91779849 -14.63720703 4.20043945 C-12.34308767 4.06055413 -10.04857639 3.92933415 -7.75390625 3.79882812 C-6.28121978 3.71144538 -4.80856223 3.6235734 -3.3359375 3.53515625 C-2.02157715 3.456604 -0.7072168 3.37805176 0.64697266 3.29711914 C3.24744677 3.0666854 5.51486671 2.75215232 8 2 C5.36 1.67 2.72 1.34 0 1 C0 0.67 0 0.34 0 0 Z " fill="#785524" transform="translate(551,696)"/>
<path d="M0 0 C0.99 0.495 0.99 0.495 2 1 C2 1.66 2 2.32 2 3 C4.33214148 4.20628008 6.49642139 5.1654738 9 6 C10.33333333 7.33333333 11.66666667 8.66666667 13 10 C13.99 10.33 14.98 10.66 16 11 C16 11.66 16 12.32 16 13 C16.84691406 13.38478516 16.84691406 13.38478516 17.7109375 13.77734375 C25.1458185 17.74853446 31.45905018 24.2148342 37.64453125 29.86328125 C39.66993971 31.70059208 41.72831255 33.48040688 43.8125 35.25 C47.61414544 38.59012882 51.29662099 42.04880679 54.9375 45.5625 C55.80822144 46.37605957 55.80822144 46.37605957 56.6965332 47.20605469 C60.19391175 50.63328822 61.76190923 52.89256893 62 58 C57.42224758 54.2545662 53.21457199 50.26527043 49.0625 46.0625 C44.5364093 41.49323736 39.92992131 37.13596394 35 33 C34.16726563 32.278125 33.33453125 31.55625 32.4765625 30.8125 C25.56814663 24.90722397 18.38789042 19.5849842 10.87939453 14.46630859 C10.13157715 13.94375488 9.38375977 13.42120117 8.61328125 12.8828125 C7.94079346 12.42277832 7.26830566 11.96274414 6.57543945 11.48876953 C4.69340636 9.71027304 4.52709501 8.48191194 4 6 C2.0162233 4.71563266 2.0162233 4.71563266 0 4 C0 2.68 0 1.36 0 0 Z " fill="#F5E194" transform="translate(349,300)"/>
<path d="M0 0 C0.43570312 0.37511719 0.87140625 0.75023437 1.3203125 1.13671875 C1.91585938 1.64847656 2.51140625 2.16023438 3.125 2.6875 C4.07632812 3.50541016 4.07632812 3.50541016 5.046875 4.33984375 C6.80475271 5.8340398 8.58505941 7.29458715 10.375 8.75 C13 11 13 11 14 13 C14.61617188 13.30035156 15.23234375 13.60070312 15.8671875 13.91015625 C18.26333865 15.13456316 19.4165031 16.37270853 21.125 18.4375 C23.92019543 21.75010395 26.79716957 24.95187905 29.75 28.125 C35.08517578 33.97176798 39.94647277 40.13796954 44.77197266 46.40771484 C46.45907099 48.59524076 48.16874887 50.76489824 49.875 52.9375 C50.91970546 54.28932369 51.96159499 55.6433306 53 57 C53.50660156 57.65871094 54.01320313 58.31742187 54.53515625 58.99609375 C58 63.63840529 58 63.63840529 58 67 C57.01 67.33 56.02 67.66 55 68 C50.28488335 62.2309161 45.75263104 56.35642959 41.3125 50.375 C35.57285939 42.66198574 29.56366862 35.19605233 23.45166016 27.77636719 C22.16356366 26.20014955 20.89840278 24.60525046 19.63671875 23.0078125 C14.86080258 16.98334786 9.70755473 11.55133412 4.1640625 6.23754883 C2.74153317 4.85979182 1.36613077 3.43369829 0 2 C0 1.34 0 0.68 0 0 Z " fill="#ECD67E" transform="translate(347,324)"/>
<path d="M0 0 C0.495 0.99 0.495 0.99 1 2 C-21.77 3.485 -21.77 3.485 -45 5 C-42.46321803 6.26839099 -40.38560319 6.31166291 -37.5546875 6.53515625 C-36.47832031 6.62216797 -35.40195312 6.70917969 -34.29296875 6.79882812 C-32.60107422 6.9293457 -32.60107422 6.9293457 -30.875 7.0625 C-29.17150391 7.19881836 -29.17150391 7.19881836 -27.43359375 7.33789062 C-24.62266799 7.56229226 -21.81149234 7.78283166 -19 8 C-19.33 8.66 -19.66 9.32 -20 10 C-25.71098536 9.88128357 -31.42181325 9.75700562 -37.13256836 9.62768555 C-39.07329054 9.58450808 -41.01404652 9.54282169 -42.95483398 9.50268555 C-45.75254477 9.44456434 -48.55008814 9.38099284 -51.34765625 9.31640625 C-52.2083522 9.29969376 -53.06904816 9.28298126 -53.95582581 9.26576233 C-58.7210352 9.14990156 -63.29641714 8.77976801 -68 8 C-68 7.67 -68 7.34 -68 7 C-63.545 6.505 -63.545 6.505 -59 6 C-62.98780002 4.00609999 -64.47147572 3.77313037 -68.75 3.875 C-69.73484375 3.89304687 -70.7196875 3.91109375 -71.734375 3.9296875 C-72.48203125 3.95289063 -73.2296875 3.97609375 -74 4 C-74 3.67 -74 3.34 -74 3 C-55.96431964 1.27707932 -37.8543951 0.82468373 -19.75 0.4375 C-17.8177027 0.39413052 -15.88541098 0.35051174 -13.953125 0.30664062 C-9.30214223 0.20157064 -4.65109844 0.09981311 0 0 Z " fill="#3A2C14" transform="translate(497,693)"/>
<path d="M0 0 C0 0.99 0 1.98 0 3 C-0.99 3.495 -0.99 3.495 -2 4 C-1.34 2.68 -0.68 1.36 0 0 Z M-6 2 C-5.34 3.32 -4.68 4.64 -4 6 C-7.08181952 10.59767384 -10.37942724 14.48784212 -14.5625 18.125 C-20.13296559 23.06424126 -25.38738243 28.27444612 -30.625 33.5625 C-31.53378906 34.47580078 -32.44257812 35.38910156 -33.37890625 36.33007812 C-35.58827955 38.55107971 -37.79526031 40.77440033 -40 43 C-40.66 42.67 -41.32 42.34 -42 42 C-41.34 41.34 -40.68 40.68 -40 40 C-40 39.01 -40 38.02 -40 37 C-38.70239258 35.36181641 -38.70239258 35.36181641 -36.89453125 33.6015625 C-36.24033203 32.95703125 -35.58613281 32.3125 -34.91210938 31.6484375 C-34.21923828 30.98070312 -33.52636719 30.31296875 -32.8125 29.625 C-31.80219727 28.635 -31.80219727 28.635 -30.77148438 27.625 C-29.45371211 26.334226 -28.13314159 25.04630158 -26.80957031 23.76147461 C-24.51695529 21.5297939 -22.25823876 19.26640599 -20 17 C-18.824375 15.8553125 -18.824375 15.8553125 -17.625 14.6875 C-14.77509571 11.76974084 -12.16144181 8.7058537 -9.55078125 5.57421875 C-8.78314453 4.79498047 -8.78314453 4.79498047 -8 4 C-7.34 4 -6.68 4 -6 4 C-6 3.34 -6 2.68 -6 2 Z " fill="#E6C76E" transform="translate(603,474)"/>
<path d="M0 0 C0.495 0.99 0.495 0.99 1 2 C-0.29156691 4.68509964 -1.64775362 7.23059675 -3.125 9.8125 C-3.57875 10.61655273 -4.0325 11.42060547 -4.5 12.24902344 C-8.37494519 19.04850496 -12.46746931 25.70482136 -16.61987305 32.33740234 C-21.09974697 39.50236404 -25.451388 46.73760603 -29.77877808 53.99508667 C-35.7241865 63.96161992 -41.72386865 73.8850533 -47.9375 83.6875 C-48.79686157 85.04959595 -48.79686157 85.04959595 -49.67358398 86.43920898 C-50.20282471 87.26751221 -50.73206543 88.09581543 -51.27734375 88.94921875 C-51.73359131 89.66424561 -52.18983887 90.37927246 -52.65991211 91.1159668 C-53.96663649 92.95309415 -55.35822885 94.46070768 -57 96 C-56.34 93.69 -55.68 91.38 -55 89 C-54.34 89 -53.68 89 -53 89 C-52.8865625 88.41863281 -52.773125 87.83726562 -52.65625 87.23828125 C-51.93902876 84.79204453 -50.97291161 83.26185051 -49.5 81.1875 C-46.60053672 76.96818419 -43.93273104 72.64541616 -41.3125 68.25 C-40.93222656 67.61215576 -40.55195312 66.97431152 -40.16015625 66.31713867 C-39.4340808 65.09715934 -38.70957107 63.87624647 -37.98681641 62.65429688 C-37.12669097 61.21238447 -36.24304379 59.78455488 -35.35546875 58.359375 C-33.93849542 56.02584744 -33.93849542 56.02584744 -32.99609375 53.44921875 C-31.95501343 50.88938596 -30.71057645 49.02471019 -29.0625 46.8125 C-24.07646466 39.85282568 -19.74374592 32.50003272 -15.31933594 25.17724609 C-13.45915658 22.10746825 -11.57393694 19.05371497 -9.6875 16 C-6.41613099 10.69161359 -3.19207758 5.35640291 0 0 Z " fill="#EDE07E" transform="translate(667,420)"/>
<path d="M0 0 C0.66 0 1.32 0 2 0 C2.06316406 1.15113281 2.12632812 2.30226563 2.19140625 3.48828125 C4.02634036 29.65833389 17.52787041 53.19045111 29.13671875 76.28125 C29.47675934 76.95786179 29.81679993 77.63447357 30.16714478 78.33158875 C31.80395034 81.58250929 33.45051883 84.82795215 35.11328125 88.06567383 C38.28048786 94.29168563 41.02373074 100.29505739 43 107 C40.06117922 104.46073658 38.68865915 101.65627377 37.03125 98.171875 C36.18216064 96.39901123 36.18216064 96.39901123 35.31591797 94.59033203 C34.71054385 93.31025357 34.10523935 92.03014219 33.5 90.75 C32.87578081 89.44225038 32.25093784 88.13479834 31.62548828 86.82763672 C30.04470334 83.5202774 28.47091874 80.20964992 26.90002441 76.89758301 C25.03133025 72.95768733 23.15873278 69.01965362 21.28320312 65.08300781 C20.36990634 63.16457788 19.459567 61.24473614 18.55273438 59.32324219 C16.75197085 55.53149363 14.93246538 51.79707567 12.8203125 48.16796875 C11.29964144 45.52147899 10.08431769 43.02899325 9 40.1875 C8.0439457 37.68906123 7.09449717 35.21077298 6 32.76953125 C3.5727645 27.26084443 2.04728269 21.65909179 0.6875 15.8125 C0.50380859 15.05195313 0.32011719 14.29140625 0.13085938 13.5078125 C-0.94398374 8.63915554 -1.00386734 4.88980542 0 0 Z " fill="#A67B35" transform="translate(439,338)"/>
<path d="M0 0 C1.08454971 -0.00315216 2.16909943 -0.00630432 3.28651428 -0.009552 C4.44291916 -0.00752777 5.59932404 -0.00550354 6.79077148 -0.00341797 C7.9912059 -0.00437469 9.19164032 -0.00533142 10.42845154 -0.00631714 C12.96092786 -0.00699636 15.49340595 -0.00516007 18.02587891 -0.00097656 C21.90132555 0.00437996 25.77665654 -0.00093275 29.65209961 -0.00732422 C32.11499049 -0.00666348 34.5778813 -0.00538242 37.04077148 -0.00341797 C38.19920059 -0.0054422 39.3576297 -0.00746643 40.55116272 -0.009552 C42.17325905 -0.00482376 42.17325905 -0.00482376 43.828125 0 C44.7759938 0.00079559 45.72386261 0.00159119 46.70045471 0.00241089 C49.34359336 0.12911784 51.77293852 0.54126322 54.34936523 1.12939453 C54.34936523 1.45939453 54.34936523 1.78939453 54.34936523 2.12939453 C42.87419111 2.94447445 31.45715336 3.2886662 19.95361328 3.25976562 C17.38950839 3.25434729 14.82557465 3.25978277 12.26147461 3.26611328 C4.22301471 3.26902334 -3.6639479 3.16152022 -11.65063477 2.12939453 C-11.65063477 1.79939453 -11.65063477 1.46939453 -11.65063477 1.12939453 C-7.71800019 0.39851663 -3.99808201 0.00335297 0 0 Z " fill="#FBEEAE" transform="translate(493.650634765625,696.87060546875)"/>
<path d="M0 0 C0.886875 0.763125 1.77375 1.52625 2.6875 2.3125 C3.33203125 2.8590625 3.9765625 3.405625 4.640625 3.96875 C6.37986434 5.46610837 8.0952739 6.99125348 9.796875 8.53125 C17.33853526 15.26508958 25.19263777 20.30834253 34.13183594 25.00341797 C37.12721964 26.6013213 40.06026872 28.30224821 43 30 C42.01 30.33 41.02 30.66 40 31 C39.67 31.66 39.34 32.32 39 33 C29.01645294 27.66600086 20.91021513 22.3402863 13.26171875 13.87890625 C12.51535156 13.25886719 11.76898438 12.63882812 11 12 C8.74395652 12.08366385 8.74395652 12.08366385 7 13 C6.01364163 11.58833114 5.03618745 10.17043816 4.0625 8.75 C3.51722656 7.96109375 2.97195313 7.1721875 2.41015625 6.359375 C1.10377559 4.17363007 0.45019489 2.4846199 0 0 Z " fill="#C09347" transform="translate(386,472)"/>
<path d="M0 0 C0.495 0.495 0.495 0.495 1 1 C3.42117545 1.21259101 5.82403778 1.37664599 8.25 1.5 C12.57296476 1.72489412 16.76983077 2.01623971 21 3 C21 3.33 21 3.66 21 4 C9.15623588 4.07397216 -2.66199454 3.84660303 -14.5 3.5 C-16.20962961 3.45161732 -17.91926502 3.40343921 -19.62890625 3.35546875 C-23.75267455 3.23932639 -27.8763555 3.1204545 -32 3 C-30 0 -30 0 -27.6875 -0.4765625 C-26.800625 -0.52554688 -25.91375 -0.57453125 -25 -0.625 C-5.86387435 -1.79319372 -5.86387435 -1.79319372 0 0 Z " fill="#5E401A" transform="translate(530,692)"/>
<path d="M0 0 C4.00798004 3.81122466 7.33874916 7.87054899 10.625 12.3125 C11.14280029 13.00819092 11.66060059 13.70388184 12.1940918 14.4206543 C17.65975094 21.81312231 22.88433644 29.36227139 28 37 C28.38655762 37.57250488 28.77311523 38.14500977 29.17138672 38.73486328 C30.20744175 40.27499453 31.22925456 41.8246797 32.25 43.375 C32.81203125 44.22835937 33.3740625 45.08171875 33.953125 45.9609375 C34.29859375 46.63382812 34.6440625 47.30671875 35 48 C34.505 48.99 34.505 48.99 34 50 C32.83167969 48.44223958 31.66337264 46.88446922 30.49511719 45.32666016 C29.43998612 43.91992899 28.38464109 42.5133583 27.32910156 41.10693359 C24.26258524 37.02030957 21.20046894 32.93047949 18.14453125 28.8359375 C17.5007251 27.97452148 16.85691895 27.11310547 16.19360352 26.22558594 C14.90246493 24.49801299 13.61257891 22.76950317 12.32397461 21.04003906 C8.42430156 15.82690443 4.43395174 10.75847864 0.125 5.875 C-1 4 -1 4 -0.6875 1.75 C-0.460625 1.1725 -0.23375 0.595 0 0 Z " fill="#DCB563" transform="translate(429,375)"/>
<path d="M0 0 C2.33137924 0.00502837 4.66275954 0.0095889 6.99414062 0.01367188 C12.64195061 0.02456385 18.28972018 0.04119455 23.9375 0.0625 C23.9375 0.3925 23.9375 0.7225 23.9375 1.0625 C22.22820312 1.10008423 22.22820312 1.10008423 20.484375 1.13842773 C16.22760147 1.2331104 11.97096818 1.33317866 7.71435547 1.43481445 C5.87747495 1.47793447 4.04056024 1.51962406 2.20361328 1.55981445 C-0.44769564 1.61807707 -3.09883606 1.68160539 -5.75 1.74609375 C-6.56178711 1.76280624 -7.37357422 1.77951874 -8.20996094 1.79673767 C-13.22500311 1.92494258 -18.09378955 2.36439618 -23.0625 3.0625 C-21.7425 3.7225 -20.4225 4.3825 -19.0625 5.0625 C-22.93748404 5.09167234 -26.81243958 5.10935673 -30.6875 5.125 C-32.32912109 5.13756836 -32.32912109 5.13756836 -34.00390625 5.15039062 C-35.59912109 5.15522461 -35.59912109 5.15522461 -37.2265625 5.16015625 C-38.68763428 5.16801147 -38.68763428 5.16801147 -40.17822266 5.17602539 C-43.21125321 5.05664506 -46.08165268 4.62116724 -49.0625 4.0625 C-40.36423639 -4.63576361 -11.48343126 -0.0434761 0 0 Z " fill="#96641D" transform="translate(511.0625,694.9375)"/>
<path d="M0 0 C1.97265625 0.15185547 1.97265625 0.15185547 4 1 C5.30859375 2.56298828 5.30859375 2.56298828 6.4375 4.5703125 C7.06785156 5.66859375 7.06785156 5.66859375 7.7109375 6.7890625 C8.13632812 7.55992187 8.56171875 8.33078125 9 9.125 C9.42539062 9.87265625 9.85078125 10.6203125 10.2890625 11.390625 C11.13224278 12.87524303 11.96861958 14.36374749 12.79785156 15.85620117 C13.93329293 17.88104086 15.11234292 19.87475325 16.296875 21.87109375 C17.99350816 24.98807348 18.42052524 26.5306668 18 30 C13.98079164 27.92970308 12.21789476 26.23869076 10.25 22.1875 C7.78512587 17.37389765 5.07109788 12.83967041 2.125 8.3125 C1.71926758 7.68819092 1.31353516 7.06388184 0.89550781 6.4206543 C-0.06658904 4.94509502 -1.03283397 3.47224163 -2 2 C-1.34 1.34 -0.68 0.68 0 0 Z " fill="#C19543" transform="translate(423,420)"/>
<path d="M0 0 C0 3.98220896 -1.32208355 4.80602572 -4 7.6875 C-4.82371094 8.574375 -5.64742187 9.46125 -6.49609375 10.375 C-11.77607246 15.91032869 -17.1390504 21.17851892 -22.9453125 26.16015625 C-25.16525228 28.14797305 -27.23351298 30.240524 -29.3125 32.375 C-33.43863116 36.5581416 -37.84038995 40.25682099 -42.421875 43.9296875 C-44.60997606 45.68679895 -46.75314105 47.47663074 -48.875 49.3125 C-51.53103575 51.61013093 -54.24096886 53.82621789 -57 56 C-57.66 55.67 -58.32 55.34 -59 55 C-53.9067838 50.32661507 -48.76641704 45.76571452 -43.375 41.4375 C-39.37571705 38.20319944 -35.68398411 34.84729004 -32.14453125 31.1171875 C-30.30976272 29.30581311 -28.43812105 27.64666715 -26.48046875 25.97265625 C-20.88270061 21.11370285 -15.71523771 15.82281396 -10.5 10.5625 C-9.47679861 9.5342702 -8.45336267 8.50627374 -7.4296875 7.47851562 C-4.95042001 4.98835662 -2.47432462 2.49507167 0 0 Z " fill="#EDE290" transform="translate(643,409)"/>
<path d="M0 0 C13.01633924 -0.20956539 25.99965929 0.42424875 39 1 C38.67 1.66 38.34 2.32 38 3 C37.01 3 36.02 3 35 3 C35 3.66 35 4.32 35 5 C37.97 5.33 40.94 5.66 44 6 C44 6.33 44 6.66 44 7 C29.98696157 7.91567112 16.04093755 8.12311627 2 8 C2 7.67 2 7.34 2 7 C6.10401041 6.66472397 10.20823238 6.33211132 14.3125 6 C15.47974609 5.90460937 16.64699219 5.80921875 17.84960938 5.7109375 C18.96787109 5.62070312 20.08613281 5.53046875 21.23828125 5.4375 C22.26993408 5.35371094 23.30158691 5.26992188 24.36450195 5.18359375 C26.23945404 5.05298106 28.12050406 5 30 5 C30 4.34 30 3.68 30 3 C29.37544922 2.97494385 28.75089844 2.9498877 28.10742188 2.92407227 C25.23812877 2.80699619 22.36907575 2.68478249 19.5 2.5625 C18.51773438 2.52318359 17.53546875 2.48386719 16.5234375 2.44335938 C10.9626941 2.20239383 5.51144691 1.78078831 0 1 C0 0.67 0 0.34 0 0 Z " fill="#342713" transform="translate(563,694)"/>
<path d="M0 0 C-3.15950712 2.10633808 -5.97824147 3.13959146 -9.5625 4.375 C-19.59045161 7.89041387 -29.26615806 11.95324405 -38.93261719 16.35864258 C-39.68704102 16.69919678 -40.44146484 17.03975098 -41.21875 17.390625 C-41.89873047 17.70032227 -42.57871094 18.01001953 -43.27929688 18.32910156 C-45 19 -45 19 -47 19 C-47 17.68 -47 16.36 -47 15 C-43.49520897 12.66347264 -39.90364797 11.51004877 -35.9375 10.21484375 C-35.14980225 9.95369278 -34.36210449 9.69254181 -33.55053711 9.42347717 C-31.03506951 8.59057894 -28.5175895 7.76395955 -26 6.9375 C-24.30455062 6.37736729 -22.60923645 5.81682511 -20.9140625 5.25585938 C-17.80942414 4.22914901 -14.70405818 3.20471171 -11.59765625 2.18334961 C-7.43916295 0.81552815 -4.36893259 -0.11807926 0 0 Z " fill="#BF9A4F" transform="translate(743,277)"/>
<path d="M0 0 C3.46512726 0.57374656 4.96777232 1.67583596 7.3125 4.25 C13.35944119 10.67464878 13.35944119 10.67464878 21.4375 13.3125 C22.283125 13.209375 23.12875 13.10625 24 13 C22.02 15.31 20.04 17.62 18 20 C14.42089119 18.21044559 12.92884882 17.12961165 10.328125 14.3046875 C9.66425781 13.58925781 9.00039063 12.87382813 8.31640625 12.13671875 C7.63449219 11.39035156 6.95257813 10.64398437 6.25 9.875 C5.55261719 9.12089844 4.85523438 8.36679687 4.13671875 7.58984375 C2.41927763 5.73124309 0.70731852 3.86789532 -1 2 C-0.67 1.34 -0.34 0.68 0 0 Z " fill="#C49841" transform="translate(495,627)"/>
<path d="M0 0 C3.79319535 1.55932742 6.11373748 3.94246388 8.9375 6.875 C12.13496809 10.18613388 15.34963575 13.1920275 19 16 C18.34 16 17.68 16 17 16 C17 16.99 17 17.98 17 19 C13.6140504 17.54887874 11.58324179 15.58324179 9 13 C8.34 13 7.68 13 7 13 C6.67 13.99 6.34 14.98 6 16 C3.36 11.71 0.72 7.42 -2 3 C-1.34 2.01 -0.68 1.02 0 0 Z " fill="#A0722C" transform="translate(395,483)"/>
<path d="M0 0 C0.99 0.495 0.99 0.495 2 1 C2 1.66 2 2.32 2 3 C4.33214148 4.20628008 6.49642139 5.1654738 9 6 C10.33333333 7.33333333 11.66666667 8.66666667 13 10 C13.99 10.33 14.98 10.66 16 11 C16 11.66 16 12.32 16 13 C16.53625 13.226875 17.0725 13.45375 17.625 13.6875 C20.84930329 15.46935182 23.29649295 17.48082298 26 20 C26 20.99 26 21.98 26 23 C21.12202261 22.54326054 18.06773487 20.10110824 14.375 17.125 C13.51648438 16.45404297 13.51648438 16.45404297 12.640625 15.76953125 C5.33725191 10.01175572 5.33725191 10.01175572 4 6 C1.99983534 4.79117904 1.99983534 4.79117904 0 4 C0 2.68 0 1.36 0 0 Z " fill="#FCF6B8" transform="translate(349,300)"/>
<path d="M0 0 C0.66 0.66 1.32 1.32 2 2 C0.8553125 3.0828125 0.8553125 3.0828125 -0.3125 4.1875 C-2.71133591 6.69790967 -4.35410221 8.96808302 -6 12 C-5.01 12 -4.02 12 -3 12 C-3.49007374 19.4736245 -3.49007374 19.4736245 -5.9375 22 C-8 23 -8 23 -10 23 C-10 21.02 -10 19.04 -10 17 C-11.98 17.99 -11.98 17.99 -14 19 C-11.69507007 12.08521021 -7.23163028 6.94883946 -2 2 C-1.34 1.34 -0.68 0.68 0 0 Z " fill="#FCF7A5" transform="translate(634,434)"/>
<path d="M0 0 C4.62161587 3.08107725 7.29873122 7.03160108 10.3515625 11.5625 C11.94715536 13.99464984 11.94715536 13.99464984 13.7109375 16.125 C15 18 15 18 15 21 C14.01 21.33 13.02 21.66 12 22 C9.31829372 18.67849577 6.65401119 15.3436736 4 12 C3.07574219 10.84177734 3.07574219 10.84177734 2.1328125 9.66015625 C1.59398437 8.96792969 1.05515625 8.27570313 0.5 7.5625 C0.0153125 6.94503906 -0.469375 6.32757813 -0.96875 5.69140625 C-2 4 -2 4 -2 1 C-1.34 0.67 -0.68 0.34 0 0 Z " fill="#E3C56D" transform="translate(390,370)"/>
<path d="M0 0 C0.144375 0.78375 0.28875 1.5675 0.4375 2.375 C1.71536857 5.15156763 1.71536857 5.15156763 4.13671875 5.77734375 C6.41974691 6.26835609 8.68695927 6.68112401 11 7 C11 7.66 11 8.32 11 9 C11.66 9.33 12.32 9.66 13 10 C7.13033144 9.2350912 1.36133228 8.11897555 -4.4375 6.9375 C-5.35982422 6.75123047 -6.28214844 6.56496094 -7.23242188 6.37304688 C-9.48864423 5.9171263 -11.74448474 5.4594036 -14 5 C-14.33 4.01 -14.66 3.02 -15 2 C-9.77487721 0.53329887 -5.4185766 -0.22577402 0 0 Z " fill="#4F3412" transform="translate(343,274)"/>
<path d="M0 0 C0.99 0.33 1.98 0.66 3 1 C-0.78388744 4.83329041 -4.57427069 8.65999192 -8.37084961 12.48071289 C-9.66172461 13.78165129 -10.95079964 15.08437829 -12.23803711 16.38891602 C-14.0875885 18.26270045 -15.94349751 20.12997726 -17.80078125 21.99609375 C-18.37588943 22.58152451 -18.95099762 23.16695526 -19.54353333 23.77012634 C-23.65838488 27.88612829 -23.65838488 27.88612829 -27 29 C-25.50592885 24.2687747 -25.50592885 24.2687747 -23 22.9375 C-22.01 22.4734375 -22.01 22.4734375 -21 22 C-20.74605469 21.44183594 -20.49210938 20.88367188 -20.23046875 20.30859375 C-18.48945512 17.04212055 -15.93662711 14.68343381 -13.3125 12.125 C-12.77375244 11.59559814 -12.23500488 11.06619629 -11.67993164 10.52075195 C-10.12801478 9.00520268 -8.56665745 7.50029138 -7 6 C-5.89011719 4.93458984 -5.89011719 4.93458984 -4.7578125 3.84765625 C-2.9375 2.1875 -2.9375 2.1875 0 0 Z " fill="#714B17" transform="translate(639,410)"/>
<path d="M0 0 C3.91995808 3.64341783 6.79385905 7.4756814 9.5625 12.0625 C9.98160645 12.74425293 10.40071289 13.42600586 10.83251953 14.12841797 C14.90488342 20.77671953 18.90553442 27.47019685 22.88891602 34.17211914 C24.9104533 37.56613256 26.94237727 40.91414318 29.14453125 44.1953125 C31.08689492 47.13134854 32.72279476 50.1100363 34.3125 53.25 C34.84488281 54.28640625 35.37726563 55.3228125 35.92578125 56.390625 C36.28027344 57.25171875 36.63476562 58.1128125 37 59 C36.505 59.99 36.505 59.99 36 61 C35.42894531 60.02804687 34.85789062 59.05609375 34.26953125 58.0546875 C32.52892887 55.0928148 30.78630774 52.13213766 29.04296875 49.171875 C26.97774246 45.66455684 24.91886732 42.15360064 22.86328125 38.640625 C16.9809445 28.61129883 10.99866139 18.67165865 4.69384766 8.90087891 C4.22253418 8.16659668 3.7512207 7.43231445 3.265625 6.67578125 C2.85086914 6.03552002 2.43611328 5.39525879 2.00878906 4.7355957 C1 3 1 3 0 0 Z " fill="#C29337" transform="translate(278,291)"/>
<path d="M0 0 C0.66 0.66 1.32 1.32 2 2 C0.08949576 5.23284995 -1.82948522 8.46058854 -3.75 11.6875 C-4.28882813 12.59951172 -4.82765625 13.51152344 -5.3828125 14.45117188 C-8.02782005 18.88639795 -10.69538015 23.01826428 -14 27 C-14.80913631 28.35281465 -15.58216475 29.72806784 -16.3125 31.125 C-19.26421761 36.5949017 -22.61935361 41.78776421 -26 47 C-26.66 46.67 -27.32 46.34 -28 46 C-25.46237909 41.69699349 -22.92109032 37.39618049 -20.37670898 33.09716797 C-19.51572736 31.64135248 -18.65566667 30.18499185 -17.79663086 28.72802734 C-12.0679226 19.0136935 -6.17322189 9.43854364 0 0 Z " fill="#563914" transform="translate(654,445)"/>
<path d="M0 0 C1.43836751 0.11458693 2.87570966 0.24209116 4.3125 0.375 C5.51326172 0.47941406 5.51326172 0.47941406 6.73828125 0.5859375 C9 1 9 1 12 3 C12.99 3 13.98 3 15 3 C15 3.66 15 4.32 15 5 C15.66 5.33 16.32 5.66 17 6 C17 7.32 17 8.64 17 10 C17.763125 10.28875 18.52625 10.5775 19.3125 10.875 C22 12 22 12 25 14 C25 15.32 25 16.64 25 18 C21.52593161 16.8419772 20.57513784 15.57513784 18 13 C14.29918941 9.91329772 10.68058286 7.12115623 6.1875 5.3125 C3.34483269 4.14198993 1.84943545 3.39338705 0 1 C0 0.67 0 0.34 0 0 Z " fill="#F7E987" transform="translate(291,280)"/>
<path d="M0 0 C1.05445313 0.00515625 2.10890625 0.0103125 3.1953125 0.015625 C4.76925781 0.00789062 4.76925781 0.00789062 6.375 0 C9.3203125 0.265625 9.3203125 0.265625 11.13330078 1.26074219 C13.9378544 2.54937165 16.17678119 2.55415256 19.2578125 2.609375 C20.39992188 2.63902344 21.54203125 2.66867187 22.71875 2.69921875 C23.90726562 2.72113281 25.09578125 2.74304688 26.3203125 2.765625 C28.67465507 2.80903479 31.02886278 2.86076795 33.3828125 2.921875 C34.42566406 2.94056641 35.46851563 2.95925781 36.54296875 2.97851562 C39.2943215 3.26293817 40.96986899 3.85366793 43.3203125 5.265625 C42.6603125 5.925625 42.0003125 6.585625 41.3203125 7.265625 C41.3203125 6.605625 41.3203125 5.945625 41.3203125 5.265625 C40.68609375 5.36101563 40.051875 5.45640625 39.3984375 5.5546875 C24.77883143 7.29127054 9.7721822 4.51475704 -4.6796875 2.265625 C-2.6796875 0.265625 -2.6796875 0.265625 0 0 Z " fill="#684D20" transform="translate(454.6796875,696.734375)"/>
<path d="M0 0 C-1.56915101 3.7073348 -3.87895254 6.20891864 -6.625 9.125 C-10.76433949 13.58781899 -14.60690253 18.17393336 -18.30859375 23.00390625 C-20 25 -20 25 -23 27 C-20.96544756 21.41497822 -17.6947139 17.12322805 -14.1875 12.375 C-13.57068359 11.51648438 -12.95386719 10.65796875 -12.31835938 9.7734375 C-11.71185547 8.9484375 -11.10535156 8.1234375 -10.48046875 7.2734375 C-9.93285889 6.52497559 -9.38524902 5.77651367 -8.82104492 5.00537109 C-6.38946032 2.3276615 -3.74367733 0 0 0 Z " fill="#B69447" transform="translate(581,382)"/>
<path d="M0 0 C7.61882783 1.185151 12.36345021 6.03143015 18 11 C19.05059065 11.90386742 20.10137341 12.80751159 21.15234375 13.7109375 C26.85359724 18.69998621 26.85359724 18.69998621 29 21 C29 21.99 29 22.98 29 24 C25.77584272 22.59696013 23.81158191 20.94905857 21.4375 18.375 C17.38972907 14.18184599 12.93010239 10.94145571 8.125 7.6640625 C7.42375 7.11492187 6.7225 6.56578125 6 6 C6 5.34 6 4.68 6 4 C5.195625 3.71125 4.39125 3.4225 3.5625 3.125 C1 2 1 2 0 0 Z " fill="#F0D778" transform="translate(316,298)"/>
<path d="M0 0 C6.79539169 4.78987494 13.05305782 10.19517225 19 16 C19 16.33 19 16.66 19 17 C14.82426587 17.53054918 13.33903037 17.25118099 9.89453125 14.69921875 C8.85277498 13.71027648 7.82562124 12.70575747 6.8125 11.6875 C6.29236328 11.18798828 5.77222656 10.68847656 5.23632812 10.17382812 C3.80931401 8.79784389 2.40375557 7.39970433 1 6 C0.38511719 5.38769531 -0.22976563 4.77539062 -0.86328125 4.14453125 C-1.23839844 3.76683594 -1.61351562 3.38914062 -2 3 C-1.34 3 -0.68 3 0 3 C0 2.01 0 1.02 0 0 Z " fill="#F9ECA2" transform="translate(375,320)"/>
<path d="M0 0 C0.495 0.99 0.495 0.99 1 2 C-16.70317667 3.36053029 -34.23184237 4.31417175 -52 4 C-52 3.67 -52 3.34 -52 3 C-50.41058594 2.90912109 -50.41058594 2.90912109 -48.7890625 2.81640625 C-47.40102779 2.73199873 -46.01300768 2.64735083 -44.625 2.5625 C-43.92632812 2.52318359 -43.22765625 2.48386719 -42.5078125 2.44335938 C-38.62639508 2.25719866 -38.62639508 2.25719866 -35 1 C-32.37619687 0.84339117 -29.77475148 0.7417092 -27.1484375 0.68359375 C-26.37440582 0.66281265 -25.60037415 0.64203156 -24.80288696 0.62062073 C-22.32701608 0.55516552 -19.85103798 0.49625913 -17.375 0.4375 C-15.69790552 0.39431093 -14.02082193 0.35069652 -12.34375 0.30664062 C-8.22927692 0.19948829 -4.11469586 0.09820955 0 0 Z " fill="#493518" transform="translate(497,693)"/>
<path d="M0 0 C0.66 0.66 1.32 1.32 2 2 C-0.55385971 6.96531089 -4.235591 10.46364981 -8.1875 14.3125 C-8.84169922 14.95767578 -9.49589844 15.60285156 -10.16992188 16.26757812 C-11.77548783 17.84970516 -13.3855469 19.4269513 -15 21 C-15.66 20.67 -16.32 20.34 -17 20 C-16.34 19.34 -15.68 18.68 -15 18 C-15 17.01 -15 16.02 -15 15 C-13.62304688 13.2824707 -13.62304688 13.2824707 -11.71875 11.42578125 C-11.04199219 10.75869141 -10.36523438 10.09160156 -9.66796875 9.40429688 C-8.95253906 8.71400391 -8.23710938 8.02371094 -7.5 7.3125 C-6.42685547 6.2596582 -6.42685547 6.2596582 -5.33203125 5.18554688 C-3.56120423 3.45013639 -1.78376544 1.7220927 0 0 Z " fill="#E0BF6A" transform="translate(578,496)"/>
<path d="M0 0 C0 3.76000385 -0.90074474 4.37942424 -3.3125 7.1875 C-9.0409007 14.108889 -13.97767757 21.55883846 -19 29 C-19.33 28.01 -19.66 27.02 -20 26 C-20.99 26.66 -21.98 27.32 -23 28 C-21.36784952 23.97274113 -18.51944915 21.15052642 -15.5625 18.0625 C-12.22868605 14.57973773 -9.44418952 11.17031207 -7 7 C-5.81488046 5.687994 -4.58647985 4.41340514 -3.3125 3.1875 C-2.68988281 2.58292969 -2.06726563 1.97835938 -1.42578125 1.35546875 C-0.95527344 0.90816406 -0.48476563 0.46085937 0 0 Z " fill="#835715" transform="translate(753,285)"/>
<path d="M0 0 C7.26147485 -0.41893124 14.10123664 0.97455924 21.18896484 2.39868164 C23.22992717 2.80846974 25.27283591 3.20696156 27.31640625 3.60351562 C35.27522658 5.16383476 43.15545202 6.93900313 51 9 C51 9.99 51 10.98 51 12 C46.67042472 11.07714268 42.36738696 10.14680765 38.125 8.875 C35.05938278 7.86518504 35.05938278 7.86518504 32 8 C32 7.34 32 6.68 32 6 C31.39414062 5.93941406 30.78828125 5.87882812 30.1640625 5.81640625 C28.39825609 5.63982561 26.63264388 5.46129654 24.8671875 5.28125 C23.01960024 5.10001528 21.17061251 4.9322949 19.3203125 4.78125 C14.56178212 4.37626869 10.51572679 3.64208247 6 2 C4.00630969 1.63079809 2.00720923 1.28674418 0 1 C0 0.67 0 0.34 0 0 Z " fill="#F7F4D1" transform="translate(310,276)"/>
<path d="M0 0 C1.32 0.66 2.64 1.32 4 2 C3.43152344 2.6290625 2.86304688 3.258125 2.27734375 3.90625 C-2.06961882 8.7249197 -6.38349765 13.56169818 -10.58984375 18.50390625 C-12 20 -12 20 -14 21 C-14.26171875 18.7734375 -14.26171875 18.7734375 -14 16 C-12.20703125 13.7890625 -12.20703125 13.7890625 -9.8125 11.625 C-5.94501789 7.98322268 -2.91944672 4.42625793 0 0 Z " fill="#F6E386" transform="translate(612,459)"/>
<path d="M0 0 C0.43570312 0.37511719 0.87140625 0.75023437 1.3203125 1.13671875 C1.91585938 1.64847656 2.51140625 2.16023438 3.125 2.6875 C4.07632812 3.50541016 4.07632812 3.50541016 5.046875 4.33984375 C6.80475271 5.8340398 8.58505941 7.29458715 10.375 8.75 C13 11 13 11 14 13 C14.60328125 13.29261719 15.2065625 13.58523438 15.828125 13.88671875 C18.37192523 15.19064513 19.84790226 16.68686513 21.75 18.8125 C22.36359375 19.47894531 22.9771875 20.14539063 23.609375 20.83203125 C25.27285439 23.42537692 25.27440795 24.97623542 25 28 C20.02471904 23.10126183 15.28634977 17.99049817 10.52734375 12.8828125 C9.57021484 11.85800781 9.57021484 11.85800781 8.59375 10.8125 C7.98144531 10.15636719 7.36914062 9.50023437 6.73828125 8.82421875 C5.20469083 7.21481038 3.63412003 5.66465825 2.03125 4.125 C0 2 0 2 0 0 Z " fill="#F5E38B" transform="translate(347,324)"/>
<path d="M0 0 C0.83144531 0.00451172 1.66289062 0.00902344 2.51953125 0.01367188 C4.55471897 0.02536836 6.58986923 0.04330065 8.625 0.0625 C8.625 0.3925 8.625 0.7225 8.625 1.0625 C16.875 1.3925 25.125 1.7225 33.625 2.0625 C33.625 2.3925 33.625 2.7225 33.625 3.0625 C28.2539096 3.08741229 22.88285361 3.1054596 17.51171875 3.11743164 C15.68847059 3.12242817 13.86522638 3.12922764 12.04199219 3.13793945 C9.405589 3.15021187 6.76923926 3.15577525 4.1328125 3.16015625 C2.93061569 3.16789818 2.93061569 3.16789818 1.70413208 3.17579651 C-4.04061269 3.17635276 -9.66995059 2.72533492 -15.375 2.0625 C-15.375 1.7325 -15.375 1.4025 -15.375 1.0625 C-10.20182579 -0.00059567 -5.25130664 -0.05443938 0 0 Z " fill="#F1D06A" transform="translate(497.375,696.9375)"/>
<path d="M0 0 C0.886875 0.763125 1.77375 1.52625 2.6875 2.3125 C5.18633205 4.45801359 7.69694182 6.5886242 10.21875 8.70703125 C10.78891846 9.1868042 11.35908691 9.66657715 11.9465332 10.16088867 C13.08962773 11.12220376 14.2339586 12.082051 15.37963867 13.0402832 C18.39048646 15.57461985 21.26714319 18.16740389 24 21 C18.62213529 19.81949311 16.16451772 17.40867216 12.7109375 13.36328125 C11.86402344 12.68845703 11.86402344 12.68845703 11 12 C8.81691764 12.19846808 8.81691764 12.19846808 7 13 C6.01364163 11.58833114 5.03618745 10.17043816 4.0625 8.75 C3.51722656 7.96109375 2.97195313 7.1721875 2.41015625 6.359375 C1.10377559 4.17363007 0.45019489 2.4846199 0 0 Z " fill="#C1994B" transform="translate(386,472)"/>
<path d="M0 0 C0 3.98220896 -1.32208355 4.80602572 -4 7.6875 C-4.82371094 8.574375 -5.64742187 9.46125 -6.49609375 10.375 C-12.41061173 16.57555551 -18.47200059 22.44425582 -25 28 C-25.66 27.67 -26.32 27.34 -27 27 C-18.09 18.09 -9.18 9.18 0 0 Z " fill="#F6EB94" transform="translate(643,409)"/>
<path d="M0 0 C0.66 0 1.32 0 2 0 C2.07476562 1.17433594 2.14953125 2.34867187 2.2265625 3.55859375 C2.96954242 13.17812272 4.43840731 21.67522656 8.05517578 30.65405273 C10.08730312 35.73809065 10.08730312 35.73809065 9 39 C5.67123367 34.2759424 4.39388917 29.12047841 2.875 23.625 C2.61074219 22.70460938 2.34648437 21.78421875 2.07421875 20.8359375 C0.05901366 13.67531027 -1.62984597 7.42485384 0 0 Z " fill="#C39D4F" transform="translate(439,338)"/>
<path d="M0 0 C7.75675676 9.14189189 7.75675676 9.14189189 8.25 14.9375 C8.1675 15.618125 8.085 16.29875 8 17 C7.01 17 6.02 17 5 17 C1.04 10.07 1.04 10.07 -3 3 C-2.01 2.01 -1.02 1.02 0 0 Z " fill="#B38535" transform="translate(441,447)"/>
<path d="M0 0 C0.66 0.33 1.32 0.66 2 1 C-5.59 8.59 -13.18 16.18 -21 24 C-21.66 23.67 -22.32 23.34 -23 23 C-5.49644381 3.66429587 -5.49644381 3.66429587 0 0 Z " fill="#CBAB5B" transform="translate(616,338)"/>
<path d="M0 0 C4.24009421 3.39207537 5.20212749 6.83428697 6 12 C6.125 15 6.125 15 6 17 C5.34 17.33 4.68 17.66 4 18 C2.9338748 16.13879837 1.89792035 14.26029266 0.875 12.375 C0.29492188 11.33085937 -0.28515625 10.28671875 -0.8828125 9.2109375 C-2.23636534 5.32065627 -1.6695901 3.68194374 0 0 Z " fill="#A17528" transform="translate(449,459)"/>
<path d="M0 0 C-3.15950712 2.10633808 -5.97824147 3.13959146 -9.5625 4.375 C-15.44313918 6.43291838 -21.24088805 8.62469807 -27 11 C-27.33 10.34 -27.66 9.68 -28 9 C-28.66 8.67 -29.32 8.34 -30 8 C-25.94135718 6.65472203 -21.87751417 5.32588892 -17.8125 4 C-16.66201172 3.6184375 -15.51152344 3.236875 -14.32617188 2.84375 C-13.21435547 2.4828125 -12.10253906 2.121875 -10.95703125 1.75 C-9.93585205 1.41484375 -8.91467285 1.0796875 -7.86254883 0.734375 C-5.10329026 0.02649869 -2.83215478 -0.14558868 0 0 Z " fill="#B3893B" transform="translate(743,277)"/>
<path d="M0 0 C0.66 0.66 1.32 1.32 2 2 C1.53851562 2.48726563 1.07703125 2.97453125 0.6015625 3.4765625 C-4.21136494 8.70800537 -8.40467682 14.17971808 -12.40966797 20.03759766 C-14.98513903 23.75935841 -17.70792337 26.88919225 -21 30 C-20.39968681 26.36522698 -18.92467007 24.41017437 -16.5625 21.625 C-12.53092629 16.75503392 -8.88630137 11.69021491 -5.32641602 6.47119141 C-4.26540607 4.94639936 -3.13812045 3.46813308 -2 2 C-1.34 2 -0.68 2 0 2 C0 1.34 0 0.68 0 0 Z " fill="#E5C663" transform="translate(663,397)"/>
<path d="M0 0 C0.66 0.33 1.32 0.66 2 1 C1.55197021 1.47308594 1.10394043 1.94617188 0.64233398 2.43359375 C-1.42748955 4.62093913 -3.4950023 6.81045618 -5.5625 9 C-6.26697266 9.74378906 -6.97144531 10.48757813 -7.69726562 11.25390625 C-12.2454761 16.07459016 -16.67503259 20.97800897 -21 26 C-21.66 25.34 -22.32 24.68 -23 24 C-21.82244141 22.83984375 -21.82244141 22.83984375 -20.62109375 21.65625 C-15.36701176 16.4557128 -10.20053649 11.25613084 -5.40234375 5.625 C-3.69711909 3.64902936 -1.88236824 1.80707351 0 0 Z " fill="#DDC875" transform="translate(666,384)"/>
<path d="M0 0 C3.33665898 3.11674282 5.94505707 6.5516891 8.5 10.3125 C8.89364746 10.88846924 9.28729492 11.46443848 9.69287109 12.05786133 C14.95211768 19.8111498 14.95211768 19.8111498 17 24 C16.67 24.66 16.34 25.32 16 26 C14.08061261 23.46037783 12.16499509 20.91793534 10.25 18.375 C9.71117187 17.66214844 9.17234375 16.94929688 8.6171875 16.21484375 C7.06550289 14.15223859 5.52871714 12.07967091 4 10 C3.36481445 9.14776855 3.36481445 9.14776855 2.71679688 8.27832031 C0.46513702 5.12321669 0 4.04605711 0 0 Z " fill="#CB9B49" transform="translate(447,399)"/>
<path d="M0 0 C2.44563312 2.44563312 3.34131255 4.75525172 4.6875 7.9375 C5.14511719 8.99839844 5.60273438 10.05929687 6.07421875 11.15234375 C7 14 7 14 6 17 C5.01 17 4.02 17 3 17 C1.68 14.36 0.36 11.72 -1 9 C-0.34 8.67 0.32 8.34 1 8 C0.67 5.36 0.34 2.72 0 0 Z " fill="#B18438" transform="translate(482,445)"/>
<path d="M0 0 C3.98637422 1.55076343 6.02669078 4.0940683 8.6875 7.375 C9.47511719 8.33148438 10.26273437 9.28796875 11.07421875 10.2734375 C12.77513368 12.68162943 13.59890327 14.13113863 14 17 C7.96492178 14.38701009 3.62179239 8.98386935 1.0625 3 C0.711875 2.01 0.36125 1.02 0 0 Z " fill="#EDD380" transform="translate(410,355)"/>
<path d="M0 0 C0.66 0.33 1.32 0.66 2 1 C1.61070312 1.42667969 1.22140625 1.85335938 0.8203125 2.29296875 C-4.81398798 8.58936445 -9.90139266 15.27024866 -15 22 C-15.99 21.34 -16.98 20.68 -18 20 C-17.35933594 19.29875 -16.71867188 18.5975 -16.05859375 17.875 C-11.41351272 12.77994838 -6.79521326 7.66977529 -2.27734375 2.4609375 C-1.54167701 1.61953273 -0.79030613 0.79030613 0 0 Z " fill="#BF9B4E" transform="translate(727,313)"/>
<path d="M0 0 C0 0.99 0 1.98 0 3 C-0.99 3.495 -0.99 3.495 -2 4 C-1.34 2.68 -0.68 1.36 0 0 Z M-6 2 C-5.34 3.32 -4.68 4.64 -4 6 C-6.39721488 9.16774824 -8.58905886 11.90942317 -12 14 C-12.99 14 -13.98 14 -15 14 C-13.32598022 10.04322598 -10.86850715 7.15535787 -8 4 C-7.34 4 -6.68 4 -6 4 C-6 3.34 -6 2.68 -6 2 Z " fill="#EBCC6B" transform="translate(603,474)"/>
<path d="M0 0 C0.66 0.33 1.32 0.66 2 1 C1.28972656 1.67546875 0.57945312 2.3509375 -0.15234375 3.046875 C-1.07144531 3.93890625 -1.99054687 4.8309375 -2.9375 5.75 C-3.85402344 6.63171875 -4.77054688 7.5134375 -5.71484375 8.421875 C-7.92435748 10.91465972 -8.40867518 11.88210548 -9 15 C-11.5625 17.25 -11.5625 17.25 -14 19 C-12.71041889 14.22506453 -10.94670075 11.39675202 -7.5625 7.8125 C-6.38880859 6.55373047 -6.38880859 6.55373047 -5.19140625 5.26953125 C-3.47762256 3.4946501 -1.75576915 1.73318691 0 0 Z " fill="#54360F" transform="translate(625,415)"/>
<path d="M0 0 C3.125 0.25 3.125 0.25 5 1.75 C5.37125 2.245 5.7425 2.74 6.125 3.25 C4.475 2.92 2.825 2.59 1.125 2.25 C-1.185 4.89 -3.495 7.53 -5.875 10.25 C-7.195 9.59 -8.515 8.93 -9.875 8.25 C-8.89633662 7.10373678 -7.91705413 5.95800212 -6.9375 4.8125 C-6.39222656 4.17441406 -5.84695313 3.53632813 -5.28515625 2.87890625 C-3.02022494 0.26262826 -3.02022494 0.26262826 0 0 Z " fill="#FDFBBB" transform="translate(347.875,305.75)"/>
<path d="M0 0 C4.76033058 0.92561983 4.76033058 0.92561983 6.8125 1.5625 C13.4138414 2.88276828 20.3828447 1.75934569 27 1 C25 4 25 4 22.3515625 4.69921875 C18.63672637 5.03260148 15.10007256 5.01032449 11.375 4.8125 C10.08335937 4.75707031 8.79171875 4.70164062 7.4609375 4.64453125 C3.61761358 3.92878808 2.38295326 3.01800425 0 0 Z M27 0 C29 1 29 1 29 1 Z " fill="#6B4B20" transform="translate(504,703)"/>
<path d="M0 0 C-1.40398279 4.10110762 -3.37087038 6.98089159 -6.125 10.3125 C-6.84945312 11.19550781 -7.57390625 12.07851563 -8.3203125 12.98828125 C-8.87460937 13.65214844 -9.42890625 14.31601562 -10 15 C-10.66 14.67 -11.32 14.34 -12 14 C-12 9.87322664 -9.8002029 8.16826067 -7.125 5.3125 C-6.66480469 4.80138672 -6.20460938 4.29027344 -5.73046875 3.76367188 C-2.26326769 0 -2.26326769 0 0 0 Z " fill="#CEAA57" transform="translate(711,334)"/>
<path d="M0 0 C-1.9151579 0.81604999 -3.83218834 1.62770632 -5.75 2.4375 C-6.81734375 2.88996094 -7.8846875 3.34242188 -8.984375 3.80859375 C-12.91232281 5.36043842 -16.03320561 6.13277991 -20.25 6.0625 C-22.10625 6.0315625 -22.10625 6.0315625 -24 6 C-20.94892911 2.94892911 -17.2174689 2.43648794 -13.125 1.3125 C-12.30902344 1.07466797 -11.49304688 0.83683594 -10.65234375 0.59179688 C-9.86214844 0.37201172 -9.07195313 0.15222656 -8.2578125 -0.07421875 C-7.5373877 -0.27619873 -6.81696289 -0.47817871 -6.07470703 -0.6862793 C-3.75715221 -1.03672151 -2.21426287 -0.71241772 0 0 Z " fill="#986E2A" transform="translate(768,271)"/>
<path d="M0 0 C3.65075641 3.10990361 5.61920294 6.67169392 7.84375 10.8359375 C8.7002776 12.43903308 9.61626039 14.01066703 10.5625 15.5625 C11.85092793 17.74722561 13.07105222 19.94226839 14.25 22.1875 C14.78367187 23.19876953 14.78367187 23.19876953 15.328125 24.23046875 C15.54984375 24.81441406 15.7715625 25.39835937 16 26 C15.67 26.66 15.34 27.32 15 28 C5.24814356 11.50705446 5.24814356 11.50705446 1.875 5.5625 C1.50117188 4.90378906 1.12734375 4.24507813 0.7421875 3.56640625 C0 2 0 2 0 0 Z " fill="#D4A53F" transform="translate(299,324)"/>
<path d="M0 0 C0.99 0.33 1.98 0.66 3 1 C-0.9419417 5.88049925 -5.11950075 10.0580583 -10 14 C-10.33 13.34 -10.66 12.68 -11 12 C-9.71937515 10.2925002 -8.38232443 8.62626404 -7 7 C-6.34 7 -5.68 7 -5 7 C-4.731875 6.401875 -4.46375 5.80375 -4.1875 5.1875 C-3.01506533 3.02775192 -1.80630718 1.64209744 0 0 Z " fill="#744F18" transform="translate(623,425)"/>
<path d="M0 0 C0.99 0.495 0.99 0.495 2 1 C2 1.66 2 2.32 2 3 C4.33214148 4.20628008 6.49642139 5.1654738 9 6 C11.1875 7.875 11.1875 7.875 13 10 C13 10.99 13 11.98 13 13 C9.33535945 12.5047783 7.29167646 11.9791794 5 9 C4.67 8.01 4.34 7.02 4 6 C1.99983534 4.79117904 1.99983534 4.79117904 0 4 C0 2.68 0 1.36 0 0 Z " fill="#FDFCDE" transform="translate(349,300)"/>
<path d="M0 0 C10.89 0 21.78 0 33 0 C33 0.33 33 0.66 33 1 C27.16106645 2.18383876 21.31020032 2.37212179 15.375 2.625 C14.33859375 2.6765625 13.3021875 2.728125 12.234375 2.78125 C10.73777344 2.84699219 10.73777344 2.84699219 9.2109375 2.9140625 C8.30649902 2.9548291 7.40206055 2.9955957 6.47021484 3.03759766 C4.13072552 3.00198969 2.23106182 2.67341761 0 2 C0 1.34 0 0.68 0 0 Z " fill="#8D6024" transform="translate(498,701)"/>
<path d="M0 0 C-1.36370299 2.99220268 -2.94908083 5.29026529 -5.125 7.75 C-5.93324219 8.67039062 -5.93324219 8.67039062 -6.7578125 9.609375 C-7.37269531 10.29773438 -7.37269531 10.29773438 -8 11 C-9.32 10.67 -10.64 10.34 -12 10 C-11.09373216 8.7010161 -10.17450463 7.41106833 -9.25 6.125 C-8.73953125 5.40570313 -8.2290625 4.68640625 -7.703125 3.9453125 C-5.46176947 1.3852321 -3.45101717 0 0 0 Z " fill="#BC984A" transform="translate(581,382)"/>
<path d="M0 0 C1.09248047 0.00483398 1.09248047 0.00483398 2.20703125 0.00976562 C2.92761719 -0.00634766 3.64820313 -0.02246094 4.390625 -0.0390625 C8.65733376 -0.04299133 11.2504125 0.26484807 14.33203125 3.32226562 C11.79029148 3.34943386 9.2488471 3.36918532 6.70703125 3.38476562 C5.63775391 3.39733398 5.63775391 3.39733398 4.546875 3.41015625 C0.35858687 3.42936858 -3.54081495 3.14899833 -7.66796875 2.32226562 C-5.13504853 -0.2106546 -3.46282381 0.03520431 0 0 Z " fill="#BD9039" transform="translate(477.66796875,696.677734375)"/>
<path d="M0 0 C1.27310312 0.93441535 2.543388 1.87267111 3.8125 2.8125 C4.52019531 3.33457031 5.22789062 3.85664063 5.95703125 4.39453125 C7.78531393 5.83128877 9.39896688 7.31815763 11 9 C10.34 9 9.68 9 9 9 C9 9.99 9 10.98 9 12 C6.10371669 10.7016661 3.9320396 9.54677947 2 7 C1.25613932 4.69011685 0.57809297 2.35684056 0 0 Z " fill="#68400F" transform="translate(403,490)"/>
<path d="M0 0 C1.29608947 0.93137592 2.58671632 1.8703566 3.875 2.8125 C4.59429687 3.33457031 5.31359375 3.85664063 6.0546875 4.39453125 C8 6 8 6 10 9 C7.9375 9.875 7.9375 9.875 5 10 C2.40994275 8.26080867 0.20875121 6.19602066 -2 4 C-1.34 3.67 -0.68 3.34 0 3 C0 2.01 0 1.02 0 0 Z " fill="#FBF1AC" transform="translate(375,320)"/>
<path d="M0 0 C0.66 0.33 1.32 0.66 2 1 C0.06901898 4.10826664 -1.87089582 7.2108601 -3.8125 10.3125 C-4.35970703 11.19357422 -4.90691406 12.07464844 -5.47070312 12.98242188 C-6.00244141 13.82998047 -6.53417969 14.67753906 -7.08203125 15.55078125 C-7.56905518 16.33106689 -8.0560791 17.11135254 -8.55786133 17.9152832 C-9.89638605 19.85021847 -11.2793416 21.40431809 -13 23 C-12.01 19.535 -12.01 19.535 -11 16 C-10.34 16 -9.68 16 -9 16 C-8.89558594 15.43410156 -8.79117188 14.86820312 -8.68359375 14.28515625 C-7.88059795 11.60085599 -6.65476343 9.7383012 -5.0625 7.4375 C-4.53785156 6.67308594 -4.01320313 5.90867187 -3.47265625 5.12109375 C-2.98667969 4.42113281 -2.50070312 3.72117187 -2 3 C-1.34 2.01 -0.68 1.02 0 0 Z " fill="#D6B24E" transform="translate(623,493)"/>
<path d="M0 0 C0.43570312 0.37511719 0.87140625 0.75023437 1.3203125 1.13671875 C1.91585938 1.64847656 2.51140625 2.16023438 3.125 2.6875 C4.07439453 3.50734375 4.07439453 3.50734375 5.04296875 4.34375 C6.27642773 5.38763545 7.52720691 6.41170171 8.80078125 7.40625 C10.25149959 8.54189586 11.63224766 9.76568692 13 11 C13 11.99 13 12.98 13 14 C9.39438086 12.4700928 7.0140801 10.31303068 4.25 7.5625 C3.45078125 6.78003906 2.6515625 5.99757813 1.828125 5.19140625 C0 3 0 3 0 0 Z " fill="#F5E17F" transform="translate(332,308)"/>
<path d="M0 0 C0.66 0.33 1.32 0.66 2 1 C-4.32997879 5.34410309 -13.11009462 11 -21 11 C-21 10.34 -21 9.68 -21 9 C-20.23816406 8.68546875 -19.47632813 8.3709375 -18.69140625 8.046875 C-17.65886719 7.61890625 -16.62632812 7.1909375 -15.5625 6.75 C-14.47324219 6.29882812 -13.38398437 5.84765625 -12.26171875 5.3828125 C-8.71097162 3.87746581 -5.2189387 2.26989366 -1.7421875 0.6015625 C-1.16726563 0.40304687 -0.59234375 0.20453125 0 0 Z " fill="#CAAC60" transform="translate(542,491)"/>
<path d="M0 0 C1 3 1 3 -0.0390625 5.70703125 C-2.91673513 11.34188283 -5.64426635 16.38804673 -10 21 C-10.33 20.34 -10.66 19.68 -11 19 C-10.10375977 17.02880859 -10.10375977 17.02880859 -8.69140625 14.6484375 C-8.19189453 13.79765625 -7.69238281 12.946875 -7.17773438 12.0703125 C-6.64470703 11.18085938 -6.11167969 10.29140625 -5.5625 9.375 C-5.03333984 8.4778125 -4.50417969 7.580625 -3.95898438 6.65625 C-2.646418 4.43316461 -1.32652747 2.21477355 0 0 Z " fill="#3B270B" transform="translate(666,424)"/>
<path d="M0 0 C0.99 0 1.98 0 3 0 C2.67 2.64 2.34 5.28 2 8 C0.35 8.33 -1.3 8.66 -3 9 C-3.2519555 5.97653399 -3.20421041 4.3597993 -1.6875 1.6875 C-1.130625 1.130625 -0.57375 0.57375 0 0 Z " fill="#FDFBB3" transform="translate(628,446)"/>
<path d="M0 0 C2.34210921 0.63514826 4.67684969 1.2986716 7 2 C8.32 2 9.64 2 11 2 C11.33 2.99 11.66 3.98 12 5 C4.62346781 4.24984418 -2.67831776 3.16558465 -10 2 C-6.25405125 -0.49729916 -4.44844343 -0.2965629 0 0 Z " fill="#3B2D18" transform="translate(315,273)"/>
<path d="M0 0 C0.66 0 1.32 0 2 0 C3.625 2.5 3.625 2.5 5 5 C4.113125 5.268125 3.22625 5.53625 2.3125 5.8125 C-0.76877548 6.91710819 -3.26221405 8.22849144 -6 10 C-6.99 8.68 -7.98 7.36 -9 6 C-8.67 5.34 -8.34 4.68 -8 4 C-7.236875 4.20625 -6.47375 4.4125 -5.6875 4.625 C-2.78114056 5.33391203 -2.78114056 5.33391203 0 3 C0 2.01 0 1.02 0 0 Z " fill="#DBBA60" transform="translate(488,605)"/>
<path d="M0 0 C0.66 0.33 1.32 0.66 2 1 C1.67 1.33 1.34 1.66 1 2 C1.66 2.66 2.32 3.32 3 4 C-2.28 5.98 -7.56 7.96 -13 10 C-13.33 9.34 -13.66 8.68 -14 8 C-13.15695312 7.59007812 -12.31390625 7.18015625 -11.4453125 6.7578125 C-10.34960938 6.21898437 -9.25390625 5.68015625 -8.125 5.125 C-6.48917969 4.32449219 -6.48917969 4.32449219 -4.8203125 3.5078125 C-1.96117453 2.15464063 -1.96117453 2.15464063 0 0 Z " fill="#402508" transform="translate(488,483)"/>
<path d="M0 0 C0.33 0.99 0.66 1.98 1 3 C-0.35690868 5.44891111 -1.74233407 7.69551587 -3.3125 10 C-3.72951172 10.6290625 -4.14652344 11.258125 -4.57617188 11.90625 C-5.70807788 13.61042746 -6.85345415 15.3056374 -8 17 C-8.66 17.99 -9.32 18.98 -10 20 C-10.66 19.67 -11.32 19.34 -12 19 C-10.18978587 16.01943864 -8.37644749 13.04079049 -6.5625 10.0625 C-6.04623047 9.21236328 -5.52996094 8.36222656 -4.99804688 7.48632812 C-4.50498047 6.67744141 -4.01191406 5.86855469 -3.50390625 5.03515625 C-2.82050171 3.91185913 -2.82050171 3.91185913 -2.12329102 2.76586914 C-1 1 -1 1 0 0 Z " fill="#422B0D" transform="translate(638,472)"/>
<path d="M0 0 C2.62187494 1.04874998 3.79371361 1.64931313 5.25 4.125 C5.4975 4.74375 5.745 5.3625 6 6 C6.99 6 7.98 6 9 6 C9 6.66 9 7.32 9 8 C9.804375 8.12375 10.60875 8.2475 11.4375 8.375 C12.283125 8.58125 13.12875 8.7875 14 9 C14.33 9.66 14.66 10.32 15 11 C11.2323555 11.3822248 9.5395486 11.40094896 6.4453125 9.1015625 C5.67960937 8.28429687 4.91390625 7.46703125 4.125 6.625 C3.34382813 5.81289063 2.56265625 5.00078125 1.7578125 4.1640625 C0 2 0 2 0 0 Z " fill="#442A0C" transform="translate(387,471)"/>
<path d="M0 0 C2 1 2 1 3.125 4.0625 C3.41375 5.031875 3.7025 6.00125 4 7 C3.01 7.33 2.02 7.66 1 8 C0.67 8.99 0.34 9.98 0 11 C-2 8 -2 8 -1.6875 5.5 C-1.17901328 3.65095738 -0.60642538 1.81927613 0 0 Z " fill="#9A6722" transform="translate(401,488)"/>
<path d="M0 0 C0.99 0 1.98 0 3 0 C3 0.66 3 1.32 3 2 C3.99 2.33 4.98 2.66 6 3 C5.67 4.32 5.34 5.64 5 7 C-0.875 4.25 -0.875 4.25 -2 2 C-1.34 2 -0.68 2 0 2 C0 1.34 0 0.68 0 0 Z " fill="#FDF9C6" transform="translate(362,311)"/>
<path d="M0 0 C0.66 0.66 1.32 1.32 2 2 C-1.3 5.3 -4.6 8.6 -8 12 C-8.66 11.67 -9.32 11.34 -10 11 C-6.7 7.37 -3.4 3.74 0 0 Z " fill="#BA994E" transform="translate(603,350)"/>
<path d="M0 0 C0.66 0.33 1.32 0.66 2 1 C-0.55605387 3.98206285 -3.47620196 5.34597235 -7 7 C-8.0828125 7.61875 -8.0828125 7.61875 -9.1875 8.25 C-11 9 -11 9 -14 8 C-11.7136988 6.63597957 -9.42178251 5.28365726 -7.125 3.9375 C-6.47402344 3.54755859 -5.82304688 3.15761719 -5.15234375 2.75585938 C-3.46934275 1.77555467 -1.73703801 0.88101568 0 0 Z " fill="#D6BD6C" transform="translate(558,482)"/>
<path d="M0 0 C0 4.03381023 -1.59573562 5.49433637 -4 8.6875 C-4.7425 9.68136719 -5.485 10.67523438 -6.25 11.69921875 C-7.11625 12.83810547 -7.11625 12.83810547 -8 14 C-8.33 13.01 -8.66 12.02 -9 11 C-7.12890625 8.30078125 -7.12890625 8.30078125 -4.5625 5.3125 C-3.71816406 4.31863281 -2.87382813 3.32476562 -2.00390625 2.30078125 C-1.01197266 1.16189453 -1.01197266 1.16189453 0 0 Z " fill="#F5DC74" transform="translate(651,413)"/>
<path d="M0 0 C5.57142857 5.14285714 5.57142857 5.14285714 6 9 C5.01 9.33 4.02 9.66 3 10 C0.59185923 6.48812804 -0.36629408 4.27343092 0 0 Z " fill="#EACF78" transform="translate(384,362)"/>
<path d="M0 0 C0.928125 0.20625 1.85625 0.4125 2.8125 0.625 C0.28293472 3.7166909 -2.41204612 4.53431332 -6.1875 5.625 C-6.1875 4.305 -6.1875 2.985 -6.1875 1.625 C-3.1875 -0.375 -3.1875 -0.375 0 0 Z " fill="#C8A357" transform="translate(702.1875,290.375)"/>
<path d="M0 0 C1.89453748 2.84180622 3.00192814 5.31564815 4.1875 8.5 C4.55230469 9.4590625 4.91710937 10.418125 5.29296875 11.40625 C6 14 6 14 5 17 C1.50653104 12.17568572 0.40473277 6.68866959 -1 1 C-0.67 0.67 -0.34 0.34 0 0 Z " fill="#B98F40" transform="translate(443,360)"/>
<path d="M0 0 C3.2826932 1.49076434 5.93077441 3.38620321 8.75 5.625 C9.94882812 6.57246094 9.94882812 6.57246094 11.171875 7.5390625 C11.77515625 8.02117187 12.3784375 8.50328125 13 9 C12.01 9.495 12.01 9.495 11 10 C6.13431512 7.83747339 3.24066165 4.06474743 0 0 Z " fill="#D4B164" transform="translate(397,483)"/>
<path d="M0 0 C4.455 0.99 4.455 0.99 9 2 C9 2.66 9 3.32 9 4 C9.66 4.33 10.32 4.66 11 5 C6.97007218 4.44687265 2.97977076 3.8441938 -1 3 C-0.67 2.01 -0.34 1.02 0 0 Z " fill="#563A16" transform="translate(345,279)"/>
<path d="M0 0 C1.9375 0.625 1.9375 0.625 4 2 C4.75 5.125 4.75 5.125 5 8 C2.00675737 6.9024777 1.15389099 6.32317108 -0.25 3.375 C-0.4975 2.59125 -0.745 1.8075 -1 1 C-0.67 0.67 -0.34 0.34 0 0 Z " fill="#EFDA88" transform="translate(380,359)"/>
<path d="M0 0 C4.62 0.99 9.24 1.98 14 3 C14 3.99 14 4.98 14 6 C9.16371695 5.00956295 4.52381127 4.04301154 0 2 C0 1.34 0 0.68 0 0 Z " fill="#EFEAB3" transform="translate(347,282)"/>
<path d="M0 0 C3.9375 0.3125 3.9375 0.3125 5.9375 2.3125 C2.94269083 3.1848412 0.30174089 3.42079766 -2.8125 3.375 C-3.61171875 3.36597656 -4.4109375 3.35695313 -5.234375 3.34765625 C-5.83765625 3.33605469 -6.4409375 3.32445312 -7.0625 3.3125 C-4.79975954 0.62416572 -3.5148412 -0.08540736 0 0 Z " fill="#634A1E" transform="translate(573.0625,696.6875)"/>
<path d="M0 0 C-1.4258086 3.45195767 -3.09746334 5.1014256 -6.125 7.25 C-7.21167969 8.03117187 -7.21167969 8.03117187 -8.3203125 8.828125 C-8.87460937 9.21484375 -9.42890625 9.6015625 -10 10 C-10.66 9.67 -11.32 9.34 -12 9 C-10.38050958 7.49405319 -8.75424026 5.99539332 -7.125 4.5 C-6.22007812 3.6646875 -5.31515625 2.829375 -4.3828125 1.96875 C-2 0 -2 0 0 0 Z " fill="#E0D285" transform="translate(596,455)"/>
<path d="M0 0 C3.58060962 0.07161219 5.52291402 0.71041402 8.125 3.3125 C3.2916528 3.39583357 -1.11192563 3.26511487 -5.875 2.3125 C-3.875 0.3125 -3.875 0.3125 0 0 Z " fill="#896729" transform="translate(467.875,696.6875)"/>
<path d="M0 0 C0.33 1.32 0.66 2.64 1 4 C-2.625 7 -2.625 7 -6 7 C-4.60667426 3.63279613 -3.0210714 2.0140476 0 0 Z " fill="#EED57D" transform="translate(594,481)"/>
<path d="M0 0 C2.31 1.98 4.62 3.96 7 6 C5.92598892 8.91517292 5.22189824 10.77810176 3 13 C3.268125 11.948125 3.53625 10.89625 3.8125 9.8125 C4.4375 5.85416667 4.4375 5.85416667 1.5625 3.0625 C0.716875 2.381875 -0.12875 1.70125 -1 1 C-0.67 0.67 -0.34 0.34 0 0 Z " fill="#C69D4E" transform="translate(438,321)"/>
<path d="M0 0 C-2.52956528 3.0916909 -5.22454612 3.90931332 -9 5 C-9 4.34 -9 3.68 -9 3 C-9.66 2.67 -10.32 2.34 -11 2 C-7.17679443 0.57741188 -4.08718695 -0.24042276 0 0 Z " fill="#B79041" transform="translate(724,283)"/>
<path d="M0 0 C2.64 0 5.28 0 8 0 C8 0.66 8 1.32 8 2 C4.52674819 3.1577506 1.63932552 3.06866652 -2 3 C-1.34 2.67 -0.68 2.34 0 2 C0 1.34 0 0.68 0 0 Z " fill="#473517" transform="translate(585,697)"/>
<path d="M0 0 C3.375 0.3125 3.375 0.3125 7 1 C7.66 1.99 8.32 2.98 9 4 C7.3125 4.8125 7.3125 4.8125 5 5 C2.25 2.5625 2.25 2.5625 0 0 Z " fill="#C39647" transform="translate(406,492)"/>
<path d="M0 0 C0.66 0.33 1.32 0.66 2 1 C-1.56430755 4.14985318 -4.40693504 6.5140084 -9 8 C-7.83917375 4.51752126 -7.09067524 4.11180756 -4.0625 2.25 C-3.35222656 1.80140625 -2.64195312 1.3528125 -1.91015625 0.890625 C-1.27980469 0.59671875 -0.64945313 0.3028125 0 0 Z " fill="#D9C072" transform="translate(570,474)"/>
<path d="M0 0 C0.66 0.33 1.32 0.66 2 1 C-5.11389522 7.51936219 -5.11389522 7.51936219 -10 9 C-6.83047153 5.73991357 -3.60062011 2.77762123 0 0 Z " fill="#DACA7E" transform="translate(582,465)"/>
<path d="M0 0 C0.99 0.33 1.98 0.66 3 1 C1.88121617 2.17262904 0.75476949 3.33795138 -0.375 4.5 C-1.00148438 5.1496875 -1.62796875 5.799375 -2.2734375 6.46875 C-4 8 -4 8 -6 8 C-5.34 6.68 -4.68 5.36 -4 4 C-3.34 4 -2.68 4 -2 4 C-1.34 2.68 -0.68 1.36 0 0 Z " fill="#533D15" transform="translate(606,442)"/>
<path d="M0 0 C0 3.58912412 -0.66436554 4.10857029 -3 6.6875 C-3.556875 7.31011719 -4.11375 7.93273437 -4.6875 8.57421875 C-5.120625 9.04472656 -5.55375 9.51523437 -6 10 C-6.66 9.34 -7.32 8.68 -8 8 C-5.36 5.36 -2.72 2.72 0 0 Z " fill="#D4C16C" transform="translate(651,400)"/>
<path d="M0 0 C0.66 0.33 1.32 0.66 2 1 C2 1.99 2 2.98 2 4 C2.66 4 3.32 4 4 4 C4 5.32 4 6.64 4 8 C2.0625 7.25 2.0625 7.25 0 6 C-0.8125 4 -0.8125 4 -1 2 C-0.67 1.34 -0.34 0.68 0 0 Z " fill="#E5C471" transform="translate(425,370)"/>
<path d="M0 0 C0 3.58912412 -0.66436554 4.10857029 -3 6.6875 C-3.556875 7.31011719 -4.11375 7.93273437 -4.6875 8.57421875 C-5.120625 9.04472656 -5.55375 9.51523437 -6 10 C-6.99 9.67 -7.98 9.34 -9 9 C-6.03 6.03 -3.06 3.06 0 0 Z " fill="#9D7220" transform="translate(753,285)"/>
<path d="M0 0 C2.2477975 2.05233685 3.0022242 3.00667261 4 6 C2.68 6.33 1.36 6.66 0 7 C-1.125 2.25 -1.125 2.25 0 0 Z " fill="#B58631" transform="translate(460,483)"/>
<path d="M0 0 C2.15377564 2.62198774 3.40072174 4.64404172 4 8 C2.68 7.67 1.36 7.34 0 7 C-0.93423645 3.98968256 -1.04449911 3.13349732 0 0 Z " fill="#B48531" transform="translate(455,473)"/>
<path d="M0 0 C0.99 0.33 1.98 0.66 3 1 C2.0479279 2.00596297 1.08812654 3.00461563 0.125 4 C-0.40867187 4.556875 -0.94234375 5.11375 -1.4921875 5.6875 C-3 7 -3 7 -5 7 C-4.6189482 4.23737447 -4.16402868 3.15856106 -2.125 1.1875 C-1.42375 0.795625 -0.7225 0.40375 0 0 Z " fill="#5E4010" transform="translate(639,410)"/>
<path d="M0 0 C0 4.38968456 -2.12805101 5.76905739 -5 9 C-5.99 8.67 -6.98 8.34 -8 8 C-5.36 5.36 -2.72 2.72 0 0 Z " fill="#F0E487" transform="translate(643,409)"/>
<path d="M0 0 C1.14926266 0.95421808 2.29430541 1.91352045 3.4375 2.875 C4.07558594 3.40867187 4.71367187 3.94234375 5.37109375 4.4921875 C7 6 7 6 8 8 C4.21479387 7.45925627 2.40822445 5.92427254 0 3 C0 2.01 0 1.02 0 0 Z " fill="#FAEB95" transform="translate(332,308)"/>
<path d="M0 0 C0 3.58912412 -0.66436554 4.10857029 -3 6.6875 C-3.556875 7.31011719 -4.11375 7.93273437 -4.6875 8.57421875 C-5.120625 9.04472656 -5.55375 9.51523437 -6 10 C-6.99 9.67 -7.98 9.34 -9 9 C-6.03 6.03 -3.06 3.06 0 0 Z " fill="#946F2E" transform="translate(743,295)"/>
<path d="M0 0 C0.66 0.66 1.32 1.32 2 2 C0.02 4.31 -1.96 6.62 -4 9 C-4.33 8.34 -4.66 7.68 -5 7 C-3.35 4.69 -1.7 2.38 0 0 Z " fill="#A68338" transform="translate(563,400)"/>
<path d="M0 0 C1.98 0 3.96 0 6 0 C6 0.99 6 1.98 6 3 C4.02 3 2.04 3 0 3 C0 2.01 0 1.02 0 0 Z " fill="#453416" transform="translate(439,697)"/>
<path d="M0 0 C0.66 0.33 1.32 0.66 2 1 C-0.64 2.65 -3.28 4.3 -6 6 C-6.99 5.34 -7.98 4.68 -9 4 C-7.54618103 3.30300448 -6.08677047 2.61766134 -4.625 1.9375 C-3.40683594 1.36322266 -3.40683594 1.36322266 -2.1640625 0.77734375 C-1.44992187 0.52082031 -0.73578125 0.26429688 0 0 Z " fill="#D1B565" transform="translate(542,491)"/>
<path d="M0 0 C2.5 2.25 2.5 2.25 5 5 C5 6.32 5 7.64 5 9 C4.34 9 3.68 9 3 9 C2.01 6.03 1.02 3.06 0 0 Z " fill="#825317" transform="translate(403,490)"/>
<path d="M0 0 C0.99 0 1.98 0 3 0 C2.34 1.98 1.68 3.96 1 6 C0.34 6 -0.32 6 -1 6 C-1.042721 4.33388095 -1.04063832 2.66617115 -1 1 C-0.67 0.67 -0.34 0.34 0 0 Z " fill="#FEFDDA" transform="translate(626,449)"/>
<path d="M0 0 C2.89932357 2.39509338 3.50168276 4.31245243 4 8 C2.35 6.35 0.7 4.7 -1 3 C-0.67 2.01 -0.34 1.02 0 0 Z " fill="#D7AD58" transform="translate(444,395)"/>
<path d="M0 0 C0.33 0.99 0.66 1.98 1 3 C-0.65 4.65 -2.3 6.3 -4 8 C-4.66 7.67 -5.32 7.34 -6 7 C-4.02 4.69 -2.04 2.38 0 0 Z " fill="#B8964B" transform="translate(589,366)"/>
<path d="M0 0 C4.95 0.99 4.95 0.99 10 2 C9.34 2.66 8.68 3.32 8 4 C7.01 4 6.02 4 5 4 C5 3.34 5 2.68 5 2 C3.35 2 1.7 2 0 2 C0 1.34 0 0.68 0 0 Z " fill="#F2EDC8" transform="translate(337,280)"/>
<path d="M0 0 C3.82097239 0.53069061 6.06171403 1.49701566 9 4 C8.01 4.495 8.01 4.495 7 5 C4.5249829 3.88568235 2.32116581 2.41849022 0 1 C0 0.67 0 0.34 0 0 Z " fill="#F1D87C" transform="translate(280,275)"/>
</svg>
